<svg xmlns="http://www.w3.org/2000/svg" viewBox="0 0 265.93 101.13"><defs><style>.cls-1{fill:#fff;}</style></defs><title>05</title><g id="Слой_2" data-name="Слой 2"><g id="Слой_1-2" data-name="Слой 1"><path d="M61.46,47.58c-.29,13.74-1.8,24.83-7.13,35.08a33.87,33.87,0,0,1-10,12.12c-10.12,7.38-21.86,6.25-30.74-3C7,85,3.6,76.53,1.83,67.37-1.23,51.53-.7,35.9,5.29,20.73A36,36,0,0,1,16.78,5.08c10-7.68,22-6.58,31.08,2.81,7,7.24,10.39,16.2,12,25.87C60.82,39.09,61.13,44.53,61.46,47.58ZM15.12,49.52l-.63.08c1,6.53,1.88,13.09,3.15,19.57A24.4,24.4,0,0,0,23.19,81c4.41,4.93,10.75,5,15-.06a24,24,0,0,0,4.11-7.22c5-14.2,5.2-28.64,1.55-43.17-1.12-4.44-2.6-8.75-5.86-12.17-4.32-4.54-10.4-4.65-14.51.07a25.51,25.51,0,0,0-4.24,7.14C16.14,33.22,15.25,41.32,15.12,49.52Z"/><path d="M107.13,85.34l12.32-8.24c.52.75,1,1.39,1.41,2,4.34,6,10.31,8.51,17.54,7.4C146,85.35,151,81,152.88,73.39c2.35-9.52-5-19.46-15.06-20.21a24.58,24.58,0,0,0-7.35.59,53.32,53.32,0,0,1-17,.95V.1h46.22V15.43H128.21v23.4c3.16,0,6.31-.08,9.45,0a31.88,31.88,0,0,1,30.7,30.89c.3,12.32-7.68,23.86-20,28.94a33.9,33.9,0,0,1-37.89-8.79C109.3,88.56,108.38,87.06,107.13,85.34Z"/><path d="M200.94,96.63l12-27.87Q226.5,37.19,240,5.6c.75-1.76,1.62-2.41,3.51-2.28,2.7.18,5.43,0,8.57,0-.38,1-.63,1.69-.92,2.37Q232.09,50.19,213,94.65a2.85,2.85,0,0,1-3.24,2C207,96.54,204.2,96.63,200.94,96.63Z"/><path d="M265.93,73.62c-.18,5.91-1,12-5,17.1-5.56,7-14,6.32-18.54-1.42-3.16-5.35-4-11.21-3.85-17.3a29.66,29.66,0,0,1,3.79-14.67c4.93-8.41,14.6-8.47,19.66-.13C265,62.17,265.83,67.64,265.93,73.62Zm-6.22-1.1c-1.13-3.76-2-7.14-3.18-10.4a4.45,4.45,0,0,0-4.27-3,4.74,4.74,0,0,0-4.49,3.07A25.33,25.33,0,0,0,247.61,84c.85,1.89,2.22,3.34,4.53,3.37a4.65,4.65,0,0,0,4.66-3.49C258,80.11,258.78,76.23,259.71,72.53Z"/><path d="M212.49,26.76c-.33,6.61-1.29,13-5.73,18.17-4.71,5.53-11.58,5.5-16.32,0-3.27-3.76-4.66-8.3-5.21-13.13-.84-7.35-.33-14.52,3.55-21.08,5-8.47,14.89-8.41,19.69.19a29.8,29.8,0,0,1,2.82,7.31A79.25,79.25,0,0,1,212.49,26.76Zm-6.37,0c-1-3.68-1.84-7.32-3-10.81a4.58,4.58,0,0,0-4.59-3.24A4.81,4.81,0,0,0,194,15.83a26,26,0,0,0,0,21.8,4.81,4.81,0,0,0,4.65,3.2,4.63,4.63,0,0,0,4.48-3.39C204.3,34,205.11,30.44,206.12,26.73Z"/><path d="M90.46,99.57H78V84.83H90.46Z"/><path class="cls-1" d="M15.12,49.52c.13-8.2,1-16.3,4.11-24a25.51,25.51,0,0,1,4.24-7.14c4.1-4.71,10.18-4.61,14.51-.07,3.26,3.42,4.74,7.73,5.86,12.17,3.66,14.53,3.48,29-1.55,43.17a24,24,0,0,1-4.11,7.22c-4.24,5.08-10.57,5-15,.06a24.4,24.4,0,0,1-5.54-11.81c-1.28-6.48-2.12-13-3.15-19.57Z"/><path class="cls-1" d="M259.71,72.53c-.93,3.71-1.71,7.58-2.91,11.33a4.65,4.65,0,0,1-4.66,3.49c-2.31,0-3.68-1.48-4.53-3.37a25.33,25.33,0,0,1,.15-21.75,4.74,4.74,0,0,1,4.49-3.07,4.45,4.45,0,0,1,4.27,3C257.72,65.39,258.58,68.77,259.71,72.53Z"/><path class="cls-1" d="M206.12,26.73c-1,3.71-1.82,7.27-3,10.71a4.63,4.63,0,0,1-4.48,3.39,4.81,4.81,0,0,1-4.65-3.2,26,26,0,0,1,0-21.8,4.81,4.81,0,0,1,4.44-3.16,4.58,4.58,0,0,1,4.59,3.24C204.28,19.41,205.11,23,206.12,26.73Z"/></g></g></svg>
