<svg xmlns="http://www.w3.org/2000/svg" viewBox="0 0 222.16 95.17"><defs><style>.cls-1{fill:#282828;}.cls-2{fill:#303030;}.cls-3{fill:#fbfbfb;}</style></defs><title>100101010</title><g id="Слой_2" data-name="Слой 2"><g id="Слой_1-2" data-name="Слой 1"><path class="cls-1" d="M141.73,47.76c-.12,3.7-1.73,6.16-4,6.23s-4.07-2.48-4.13-6.11a8.38,8.38,0,0,1,.76-4.21c.71-1.32,1.73-2.41,3.33-2.39A3.82,3.82,0,0,1,141,43.73,9.18,9.18,0,0,1,141.73,47.76Z"/><path class="cls-1" d="M13.78,6.43a9.83,9.83,0,0,1-.7,3.83c-.72,1.43-1.72,2.59-3.43,2.57a3.58,3.58,0,0,1-3.26-2.47,9.76,9.76,0,0,1,0-7.73A3.61,3.61,0,0,1,9.65.15c1.7,0,2.72,1.15,3.44,2.57A9.81,9.81,0,0,1,13.78,6.43Z"/><path class="cls-1" d="M15.23,6.55a8.82,8.82,0,0,1,.86-4.18A3.77,3.77,0,0,1,19.29.14a3.52,3.52,0,0,1,3.19,2.23,9.58,9.58,0,0,1,.15,7.93,3.55,3.55,0,0,1-3.44,2.53c-1.6-.05-2.56-1.16-3.25-2.51A9.37,9.37,0,0,1,15.23,6.55Z"/><path class="cls-1" d="M152.24,68.19c-.12,3.83-1.74,6.29-4,6.36s-4.07-2.48-4.13-6.11a8.38,8.38,0,0,1,.76-4.21c.71-1.32,1.73-2.42,3.33-2.39a3.82,3.82,0,0,1,3.29,2.45A9.37,9.37,0,0,1,152.24,68.19Z"/><path class="cls-1" d="M37.54,6.46A8.41,8.41,0,0,1,36.42,11C34.76,13.46,32,13.5,30.52,11a9.13,9.13,0,0,1-.38-8.31A3.59,3.59,0,0,1,33.38.15c1.71,0,2.73,1.12,3.46,2.54A9.42,9.42,0,0,1,37.54,6.46Z"/><path class="cls-1" d="M142.65,68.09c-.13,4-1.76,6.41-4,6.47s-4.06-2.51-4.11-6.13a12.86,12.86,0,0,1,.23-2.71c.44-2.2,2.22-3.93,3.87-3.9s3.38,1.82,3.79,4A21.26,21.26,0,0,1,142.65,68.09Z"/><path class="cls-1" d="M43.56,6.57c.13-3.9,1.79-6.41,4-6.46s4,2.43,4.09,5.93a13.46,13.46,0,0,1-.18,2.72c-.4,2.34-2.16,4.14-3.91,4.1S44.14,11,43.76,8.64C43.63,7.82,43.6,7,43.56,6.57Z"/><path class="cls-1" d="M124.91,68.27a10.08,10.08,0,0,1,.66-3.78c.7-1.44,1.71-2.63,3.39-2.65a3.63,3.63,0,0,1,3.4,2.6,9.82,9.82,0,0,1,.06,7.31c-.6,1.58-1.7,2.79-3.51,2.75s-2.67-1.24-3.35-2.69A10.25,10.25,0,0,1,124.91,68.27Z"/><path class="cls-1" d="M65.87,6.39c-.13,4-1.76,6.41-4,6.47s-4.06-2.51-4.11-6.13A12.86,12.86,0,0,1,58,4c.44-2.2,2.22-3.93,3.88-3.9s3.38,1.82,3.79,4A21.28,21.28,0,0,1,65.87,6.39Z"/><path class="cls-1" d="M75.46,6.43a8.09,8.09,0,0,1-1.22,4.76c-1.6,2.2-4.07,2.2-5.67,0s-1.64-7.09-.07-9.3,4.17-2.31,5.8,0A8.06,8.06,0,0,1,75.46,6.43Z"/><path class="cls-1" d="M85.06,6.62c-.12,3.7-1.73,6.16-4,6.23S77,10.37,76.94,6.74a8.38,8.38,0,0,1,.76-4.21C78.41,1.22,79.43.12,81,.14a3.82,3.82,0,0,1,3.29,2.45A9.18,9.18,0,0,1,85.06,6.62Z"/><path class="cls-1" d="M111.2,68.27c.13-3.9,1.79-6.41,4-6.46s4,2.43,4.09,5.93a13.46,13.46,0,0,1-.18,2.72c-.4,2.34-2.16,4.14-3.91,4.1s-3.43-1.86-3.82-4.21C111.26,69.52,111.24,68.68,111.2,68.27Z"/><path class="cls-1" d="M99.24,6.38a10.34,10.34,0,0,1-.66,3.78c-.69,1.44-1.67,2.63-3.37,2.66a3.6,3.6,0,0,1-3.41-2.58,9.72,9.72,0,0,1,0-7.52A3.62,3.62,0,0,1,95.23.15c1.68,0,2.67,1.23,3.37,2.68A10.59,10.59,0,0,1,99.24,6.38Z"/><path class="cls-1" d="M86.07,68.14a8,8,0,0,1,1.16-4.55c1.64-2.3,4.18-2.31,5.8,0s1.54,7.11-.06,9.3-4.07,2.2-5.67,0A8.11,8.11,0,0,1,86.07,68.14Z"/><path class="cls-1" d="M105.26,6.44c.11-3.83,1.89-6.43,4.18-6.33s3.87,2.62,3.94,6.09a8.5,8.5,0,0,1-.74,4.21c-.7,1.33-1.69,2.42-3.31,2.42s-2.61-1.09-3.31-2.42A9.12,9.12,0,0,1,105.26,6.44Z"/><path class="cls-1" d="M71.91,68c.11-3.63,1.75-6.15,4-6.23S80,64.32,80,67.92a8.27,8.27,0,0,1-.86,4.4,3.41,3.41,0,0,1-6.4,0A8.89,8.89,0,0,1,71.91,68Z"/><path class="cls-1" d="M127.57,6.5a8.82,8.82,0,0,1-1,4.28c-1.68,2.73-4.57,2.82-6.11,0a9,9,0,0,1-.11-8.5A3.42,3.42,0,0,1,123.58.14a3.81,3.81,0,0,1,3.17,2.29A8.91,8.91,0,0,1,127.57,6.5Z"/><path class="cls-1" d="M65.87,68.11a8.15,8.15,0,0,1-1.21,4.76c-1.6,2.21-4.06,2.22-5.67,0s-1.66-6.82-.2-9.1c1.67-2.61,4.34-2.63,6,0A7.75,7.75,0,0,1,65.87,68.11Z"/><path class="cls-1" d="M133.6,6.43c.11-3.73,1.76-6.24,4-6.32s4.08,2.52,4.14,6.12a8.26,8.26,0,0,1-.87,4.4,3.41,3.41,0,0,1-6.4,0A8.94,8.94,0,0,1,133.6,6.43Z"/><path class="cls-1" d="M46.22,68.11A8.15,8.15,0,0,1,45,72.87c-1.6,2.21-4.06,2.22-5.67,0s-1.66-6.82-.2-9.1c1.67-2.61,4.34-2.63,6,0A7.75,7.75,0,0,1,46.22,68.11Z"/><path class="cls-1" d="M147.77,6.47A8,8,0,0,1,149,1.84c1.6-2.21,4-2.24,5.67-.08s1.67,7.25,0,9.49-4.09,2.13-5.67-.1A8.11,8.11,0,0,1,147.77,6.47Z"/><path class="cls-1" d="M165.5,6.5c-.12,3.84-1.75,6.3-4,6.36s-4.07-2.5-4.12-6.12a8.54,8.54,0,0,1,.67-4c.71-1.43,1.73-2.61,3.43-2.58s2.69,1.22,3.38,2.66A10.15,10.15,0,0,1,165.5,6.5Z"/><path class="cls-1" d="M167,6.35c.1-3.74,1.88-6.34,4.18-6.23s3.87,2.62,3.94,6.09a8.5,8.5,0,0,1-.74,4.21c-.7,1.33-1.69,2.42-3.31,2.42s-2.61-1.09-3.31-2.42A9.11,9.11,0,0,1,167,6.35Z"/><path class="cls-1" d="M32,68.19c-.12,3.82-1.74,6.29-4,6.36S24,72.07,23.93,68.44a8.38,8.38,0,0,1,.76-4.21c.71-1.32,1.73-2.41,3.33-2.39a3.82,3.82,0,0,1,3.29,2.45A9.37,9.37,0,0,1,32,68.19Z"/><path class="cls-1" d="M181.13,6.55A8.84,8.84,0,0,1,182,2.37a3.77,3.77,0,0,1,3.2-2.23,3.52,3.52,0,0,1,3.19,2.23,9.58,9.58,0,0,1,.15,7.93,3.55,3.55,0,0,1-3.44,2.53c-1.6-.05-2.56-1.16-3.25-2.51A9.42,9.42,0,0,1,181.13,6.55Z"/><path class="cls-1" d="M165,47.52c-.13,4-1.76,6.41-4,6.47s-4.06-2.51-4.11-6.13a12.86,12.86,0,0,1,.23-2.71c.44-2.2,2.22-3.93,3.88-3.9s3.38,1.82,3.79,4A21.28,21.28,0,0,1,165,47.52Z"/><path class="cls-1" d="M203.43,6.51c-.12,3.8-1.73,6.27-4,6.35s-4.08-2.47-4.14-6.1a8.4,8.4,0,0,1,.75-4.21c.71-1.33,1.72-2.42,3.32-2.4a3.81,3.81,0,0,1,3.3,2.44A9.29,9.29,0,0,1,203.43,6.51Z"/><path class="cls-1" d="M62.77,26.92c.12-3.67,1.77-6.18,4-6.24s4.07,2.54,4.12,6.14a8.6,8.6,0,0,1-.67,4c-.7,1.43-1.71,2.61-3.42,2.58s-2.69-1.21-3.37-2.65A9.73,9.73,0,0,1,62.77,26.92Z"/><path class="cls-1" d="M17.88,68.11a8.11,8.11,0,0,1-1.21,4.76c-1.6,2.21-4.06,2.22-5.67,0s-1.65-7.08-.08-9.3,4.16-2.33,5.8,0A8,8,0,0,1,17.88,68.11Z"/><path class="cls-1" d="M222.16,6.62c-.11,3.68-1.72,6.15-4,6.24S214.12,10.4,214,6.77a8.43,8.43,0,0,1,.74-4.21c.7-1.33,1.72-2.42,3.32-2.42s2.6,1.1,3.3,2.43A9.13,9.13,0,0,1,222.16,6.62Z"/><path class="cls-1" d="M171.44,88.73a9,9,0,0,1-.78,4C170,94,169,95.12,167.33,95.09a3.6,3.6,0,0,1-3.27-2.46,9.75,9.75,0,0,1,0-7.73,3.63,3.63,0,0,1,3.25-2.49c1.7,0,2.73,1.13,3.45,2.55A9.51,9.51,0,0,1,171.44,88.73Z"/><path class="cls-1" d="M149.13,88.84a10.08,10.08,0,0,1,.66-3.78c.7-1.44,1.71-2.63,3.39-2.65a3.63,3.63,0,0,1,3.4,2.6,9.82,9.82,0,0,1,.06,7.31c-.6,1.58-1.7,2.79-3.51,2.75s-2.67-1.24-3.35-2.69A10.25,10.25,0,0,1,149.13,88.84Z"/><path class="cls-1" d="M135.43,88.62c.12-3.67,1.77-6.18,4-6.24s4.07,2.54,4.12,6.14a8.6,8.6,0,0,1-.67,4c-.7,1.43-1.71,2.61-3.42,2.58s-2.69-1.21-3.37-2.65A9.73,9.73,0,0,1,135.43,88.62Z"/><path class="cls-1" d="M129.39,88.88c-.11,3.69-1.73,6.16-4,6.24s-4.08-2.47-4.14-6.1a8.4,8.4,0,0,1,.75-4.21c.71-1.33,1.72-2.42,3.32-2.4s2.6,1.11,3.3,2.44A9.16,9.16,0,0,1,129.39,88.88Z"/><path class="cls-1" d="M107.09,88.61c.1-3.74,1.89-6.34,4.18-6.23s3.87,2.62,3.93,6.09a8.5,8.5,0,0,1-.75,4.21c-.7,1.33-1.69,2.42-3.31,2.41s-2.61-1.09-3.31-2.42A9.11,9.11,0,0,1,107.09,88.61Z"/><path class="cls-1" d="M101.07,88.69a9.83,9.83,0,0,1-.7,3.83c-.71,1.43-1.72,2.59-3.43,2.57a3.58,3.58,0,0,1-3.26-2.47,9.76,9.76,0,0,1,0-7.73,3.62,3.62,0,0,1,3.26-2.48c1.7,0,2.72,1.15,3.44,2.57A9.8,9.8,0,0,1,101.07,88.69Z"/><path class="cls-1" d="M86.92,88.58a12.46,12.46,0,0,1-.59,3.63c-.68,1.56-1.66,2.83-3.45,2.87s-2.9-1.19-3.5-2.78a9.82,9.82,0,0,1,0-7.1c.6-1.58,1.71-2.82,3.5-2.78s2.77,1.31,3.45,2.88A13.88,13.88,0,0,1,86.92,88.58Z"/><path class="cls-1" d="M72.72,88.63c-.06,1.85-.22,3.5-1.29,4.91-1.61,2.1-3.92,2.11-5.53,0s-1.74-7.24-.08-9.48,4.19-2.18,5.8.17A8.28,8.28,0,0,1,72.72,88.63Z"/><path class="cls-1" d="M50.43,88.61c.1-3.74,1.89-6.34,4.18-6.23s3.87,2.62,3.93,6.09a8.5,8.5,0,0,1-.75,4.21c-.7,1.33-1.69,2.42-3.31,2.41S51.88,94,51.18,92.68A9.11,9.11,0,0,1,50.43,88.61Z"/><path class="cls-1" d="M36.26,88.61c.1-3.74,1.88-6.33,4.18-6.23s3.87,2.61,3.94,6.09a8.5,8.5,0,0,1-.74,4.21c-.7,1.33-1.69,2.42-3.31,2.42S37.72,94,37,92.68A9.11,9.11,0,0,1,36.26,88.61Z"/><path class="cls-1" d="M30.22,88.88c-.11,3.68-1.72,6.15-4,6.24S22.17,92.66,22.1,89a8.42,8.42,0,0,1,.75-4.21c.71-1.33,1.72-2.42,3.32-2.41s2.6,1.1,3.3,2.44A9.14,9.14,0,0,1,30.22,88.88Z"/><path class="cls-1" d="M16.07,88.66a12,12,0,0,1-.58,3.55C14.81,93.77,13.83,95,12,95.08s-2.9-1.2-3.49-2.78a9.82,9.82,0,0,1,0-7.1c.6-1.58,1.71-2.82,3.5-2.78s2.77,1.31,3.45,2.88A12.46,12.46,0,0,1,16.07,88.66Z"/><path class="cls-1" d="M214,68.05c.11-3.66,1.77-6.17,4-6.24s4.07,2.54,4.13,6.13a8.6,8.6,0,0,1-.67,4c-.7,1.43-1.71,2.61-3.42,2.58s-2.69-1.21-3.38-2.65A9.72,9.72,0,0,1,214,68.05Z"/><path class="cls-1" d="M208.48,68a12.44,12.44,0,0,1-.59,3.63c-.68,1.56-1.66,2.83-3.45,2.87s-2.9-1.2-3.49-2.78a9.82,9.82,0,0,1,0-7.1c.6-1.58,1.72-2.82,3.5-2.78s2.77,1.32,3.45,2.88A14,14,0,0,1,208.48,68Z"/><path class="cls-1" d="M194.29,68.09a9,9,0,0,1-.85,4.19,3.74,3.74,0,0,1-3.18,2.25,3.45,3.45,0,0,1-3.2-2.2,9.51,9.51,0,0,1-.1-8.13,3.51,3.51,0,0,1,3.33-2.36,3.88,3.88,0,0,1,3.27,2.49A9.32,9.32,0,0,1,194.29,68.09Z"/><path class="cls-1" d="M180.58,68.31c-.11,3.68-1.72,6.15-4,6.24s-4.09-2.45-4.16-6.09a8.43,8.43,0,0,1,.74-4.21c.7-1.33,1.72-2.42,3.31-2.42s2.6,1.1,3.3,2.43A9.13,9.13,0,0,1,180.58,68.31Z"/><path class="cls-1" d="M166.41,68.31c-.11,3.68-1.72,6.15-4,6.24s-4.08-2.46-4.15-6.09a8.43,8.43,0,0,1,.74-4.21c.7-1.33,1.72-2.42,3.32-2.42s2.6,1.1,3.3,2.43A9.13,9.13,0,0,1,166.41,68.31Z"/><path class="cls-1" d="M8.28,68.06C8.22,69.91,8.07,71.57,7,73c-1.61,2.1-3.92,2.11-5.53,0s-1.74-7.24-.08-9.48,4.19-2.18,5.8.17A8.28,8.28,0,0,1,8.28,68.06Z"/><path class="cls-1" d="M6.09,27.13a8.84,8.84,0,0,1,.86-4.18,3.75,3.75,0,0,1,3.2-2.24,3.6,3.6,0,0,1,3.3,2.42,9.68,9.68,0,0,1,.05,7.73,3.57,3.57,0,0,1-3.44,2.53c-1.6,0-2.57-1.16-3.25-2.5A9.34,9.34,0,0,1,6.09,27.13Z"/><path class="cls-1" d="M208.55,47.69a8.84,8.84,0,0,1,.86-4.18,3.75,3.75,0,0,1,3.2-2.24,3.6,3.6,0,0,1,3.3,2.42,9.68,9.68,0,0,1,.05,7.73A3.57,3.57,0,0,1,212.52,54c-1.6,0-2.57-1.16-3.25-2.5A9.37,9.37,0,0,1,208.55,47.69Z"/><path class="cls-1" d="M28.39,27.06a7.93,7.93,0,0,1-1.26,4.74c-1.58,2.11-3.92,2.14-5.53.08s-1.78-7.22-.13-9.49,4.18-2.23,5.8.1A8.22,8.22,0,0,1,28.39,27.06Z"/><path class="cls-1" d="M203,47.52c-.13,4-1.76,6.41-4,6.47s-4.06-2.51-4.11-6.13a12.86,12.86,0,0,1,.23-2.71c.44-2.2,2.22-3.93,3.88-3.9s3.38,1.82,3.79,4A21.29,21.29,0,0,1,203,47.52Z"/><path class="cls-1" d="M34.43,27a8,8,0,0,1,1.19-4.63c1.6-2.21,4-2.24,5.67-.08s1.67,7.25,0,9.49-4.09,2.13-5.67-.1A8.11,8.11,0,0,1,34.43,27Z"/><path class="cls-1" d="M188.81,47.62a9.67,9.67,0,0,1-.69,3.77c-.71,1.43-1.72,2.59-3.43,2.57a3.58,3.58,0,0,1-3.26-2.47,9.76,9.76,0,0,1,0-7.73,3.62,3.62,0,0,1,3.26-2.48c1.7,0,2.72,1.14,3.44,2.57A9.65,9.65,0,0,1,188.81,47.62Z"/><path class="cls-1" d="M48.6,27.17a8.14,8.14,0,0,1,1.2-4.76c1.6-2.21,4-2.24,5.67-.08s1.67,7.25,0,9.49-4.08,2.12-5.68-.1A8.18,8.18,0,0,1,48.6,27.17Z"/><path class="cls-1" d="M174.64,47.6a9,9,0,0,1-.78,4c-.71,1.32-1.71,2.41-3.33,2.38a3.6,3.6,0,0,1-3.27-2.46,9.75,9.75,0,0,1,0-7.73,3.63,3.63,0,0,1,3.25-2.49c1.7,0,2.73,1.13,3.45,2.55A9.51,9.51,0,0,1,174.64,47.6Z"/><path class="cls-1" d="M76.94,47.6A7.94,7.94,0,0,1,78.13,43c1.61-2.2,4-2.23,5.67-.07s1.66,7.25,0,9.49-4.09,2.11-5.67-.11A8.13,8.13,0,0,1,76.94,47.6Z"/><path class="cls-1" d="M6.09,47.71a10.05,10.05,0,0,1,.66-3.78c.7-1.44,1.71-2.63,3.39-2.65a3.63,3.63,0,0,1,3.4,2.61,9.82,9.82,0,0,1,.06,7.31C13,52.78,11.89,54,10.07,54s-2.67-1.24-3.35-2.69A10.26,10.26,0,0,1,6.09,47.71Z"/><path class="cls-1" d="M76.92,27.14a10.05,10.05,0,0,1,.66-3.78c.7-1.44,1.71-2.63,3.39-2.65a3.63,3.63,0,0,1,3.4,2.61,9.82,9.82,0,0,1,.06,7.31c-.6,1.58-1.7,2.79-3.51,2.75s-2.67-1.24-3.35-2.69A10.26,10.26,0,0,1,76.92,27.14Z"/><path class="cls-1" d="M127.57,47.62a9.65,9.65,0,0,1-.69,3.77c-.72,1.43-1.72,2.59-3.43,2.57a3.58,3.58,0,0,1-3.26-2.47,9.76,9.76,0,0,1,0-7.73,3.61,3.61,0,0,1,3.26-2.48c1.7,0,2.72,1.15,3.44,2.57A9.66,9.66,0,0,1,127.57,47.62Z"/><path class="cls-1" d="M99.23,27c-.13,4-1.76,6.41-4,6.47s-4.06-2.51-4.11-6.13a12.86,12.86,0,0,1,.23-2.71c.44-2.2,2.22-3.93,3.88-3.9s3.38,1.82,3.79,4A21.28,21.28,0,0,1,99.23,27Z"/><path class="cls-1" d="M28.39,47.75c-.12,3.71-1.74,6.17-4,6.23s-4.07-2.49-4.13-6.12A8.37,8.37,0,0,1,21,43.66c.71-1.32,1.73-2.41,3.33-2.39a3.83,3.83,0,0,1,3.29,2.46A9.19,9.19,0,0,1,28.39,47.75Z"/><path class="cls-1" d="M105.26,27.14a9.29,9.29,0,0,1,.75-4c.71-1.33,1.71-2.43,3.3-2.44a3.58,3.58,0,0,1,3.3,2.41,9.76,9.76,0,0,1,.14,7.52c-.59,1.58-1.7,2.79-3.52,2.75s-2.66-1.24-3.35-2.69A10.25,10.25,0,0,1,105.26,27.14Z"/><path class="cls-1" d="M99.23,47.54a8.51,8.51,0,0,1-1.09,4.57c-1.64,2.46-4.4,2.56-5.89,0a8.59,8.59,0,0,1-.08-8.87c1.51-2.7,4.29-2.64,6-.06A8.43,8.43,0,0,1,99.23,47.54Z"/><path class="cls-1" d="M119.43,27.13a8.84,8.84,0,0,1,.86-4.18,3.75,3.75,0,0,1,3.2-2.24,3.6,3.6,0,0,1,3.3,2.42,9.68,9.68,0,0,1,.05,7.73,3.57,3.57,0,0,1-3.44,2.53c-1.6,0-2.57-1.16-3.25-2.5A9.34,9.34,0,0,1,119.43,27.13Z"/><path class="cls-1" d="M42.56,47.54a8.29,8.29,0,0,1-1.16,4.69c-1.61,2.31-4.29,2.36-5.78,0-1.65-2.63-1.52-5.5-.5-8.3a3.61,3.61,0,0,1,3.38-2.63c1.69,0,2.7,1.19,3.4,2.62A9.61,9.61,0,0,1,42.56,47.54Z"/><path class="cls-1" d="M141.73,27.06a8.82,8.82,0,0,1-1,4.28c-1.68,2.73-4.57,2.82-6.11,0a9,9,0,0,1-.11-8.5,3.42,3.42,0,0,1,3.22-2.17A3.81,3.81,0,0,1,140.91,23,8.91,8.91,0,0,1,141.73,27.06Z"/><path class="cls-1" d="M143.19,27.15a10.18,10.18,0,0,1,.66-3.78c.69-1.44,1.7-2.63,3.39-2.65a3.63,3.63,0,0,1,3.4,2.6,9.82,9.82,0,0,1,.06,7.31c-.6,1.58-1.7,2.79-3.51,2.76s-2.67-1.24-3.35-2.68A10.54,10.54,0,0,1,143.19,27.15Z"/><path class="cls-1" d="M160.94,27a12,12,0,0,1-.58,3.55c-.68,1.56-1.66,2.83-3.45,2.87s-2.9-1.2-3.49-2.78a9.82,9.82,0,0,1,0-7.1c.6-1.58,1.72-2.82,3.5-2.78s2.77,1.31,3.45,2.88A12.49,12.49,0,0,1,160.94,27Z"/><path class="cls-1" d="M155.47,47.45a12.44,12.44,0,0,1-.59,3.63c-.68,1.56-1.66,2.83-3.45,2.87s-2.9-1.2-3.49-2.78a9.82,9.82,0,0,1,0-7.1c.6-1.58,1.71-2.82,3.5-2.78s2.77,1.31,3.45,2.88A13.91,13.91,0,0,1,155.47,47.45Z"/><path class="cls-1" d="M166.51,26.91c.11-3.64,1.76-6.15,4-6.23s4.08,2.53,4.14,6.12a8.26,8.26,0,0,1-.87,4.4,3.68,3.68,0,0,1-3.21,2.2,3.72,3.72,0,0,1-3.19-2.24A8.89,8.89,0,0,1,166.51,26.91Z"/><path class="cls-1" d="M48.6,47.48c.1-3.74,1.88-6.34,4.18-6.23s3.87,2.62,3.94,6.09A8.5,8.5,0,0,1,56,51.55c-.7,1.33-1.69,2.42-3.31,2.42s-2.61-1.09-3.31-2.42A9.11,9.11,0,0,1,48.6,47.48Z"/><path class="cls-1" d="M180.66,27.14a10.05,10.05,0,0,1,.66-3.78c.7-1.44,1.71-2.63,3.39-2.65a3.63,3.63,0,0,1,3.4,2.61,9.82,9.82,0,0,1,.06,7.31c-.6,1.58-1.7,2.79-3.51,2.75S182,32.15,181.3,30.7A10.26,10.26,0,0,1,180.66,27.14Z"/><path class="cls-1" d="M105.27,47.48c.1-3.74,1.88-6.34,4.18-6.23s3.87,2.62,3.94,6.09a8.5,8.5,0,0,1-.74,4.21c-.7,1.33-1.69,2.42-3.31,2.42s-2.61-1.09-3.31-2.42A9.11,9.11,0,0,1,105.27,47.48Z"/><path class="cls-1" d="M203,27c-.13,4-1.76,6.41-4,6.47s-4.06-2.51-4.11-6.13a12.86,12.86,0,0,1,.23-2.71c.44-2.2,2.22-3.93,3.88-3.9s3.38,1.82,3.79,4A21.29,21.29,0,0,1,203,27Z"/><path class="cls-1" d="M70.9,47.51a8.55,8.55,0,0,1-1.11,4.62c-1.65,2.45-4.36,2.5-5.9,0a9.12,9.12,0,0,1-.48-8.1,3.61,3.61,0,0,1,3.53-2.73c1.67.06,2.66,1.26,3.33,2.72A10.49,10.49,0,0,1,70.9,47.51Z"/><path class="cls-1" d="M208.55,27.07a9.9,9.9,0,0,1,.65-3.7c.69-1.44,1.7-2.63,3.38-2.66a3.62,3.62,0,0,1,3.4,2.6,9.74,9.74,0,0,1,0,7.52,3.6,3.6,0,0,1-3.43,2.55c-1.61,0-2.57-1.14-3.26-2.48A9.36,9.36,0,0,1,208.55,27.07Z"/><path class="cls-1" d="M195.66,88.65c-.13,4-1.76,6.41-4,6.47s-4.06-2.51-4.11-6.13a12.86,12.86,0,0,1,.23-2.71c.44-2.2,2.22-3.93,3.88-3.9s3.38,1.82,3.79,4A21.28,21.28,0,0,1,195.66,88.65Z"/><path class="cls-1" d="M205.26,88.76c-.12,3.83-1.74,6.29-4,6.36s-4.07-2.48-4.13-6.11a8.38,8.38,0,0,1,.76-4.21c.71-1.32,1.73-2.42,3.33-2.39a3.82,3.82,0,0,1,3.29,2.45A9.37,9.37,0,0,1,205.26,88.76Z"/><path class="cls-1" d="M214.85,88.87c-.11,3.8-1.85,6.34-4.18,6.24s-3.87-2.57-3.94-6.08a8.45,8.45,0,0,1,.74-4.21c.7-1.33,1.71-2.42,3.31-2.42s2.61,1.09,3.31,2.42A9.11,9.11,0,0,1,214.85,88.87Z"/><path class="cls-2" d="M56,6.47c0,1.67,0,3.35,0,5,0,.88-.11,1.42-1.21,1.41s-1.32-.38-1.3-1.33q.06-3.31,0-6.62c0-1,.38-2.08-1-2.68C51.9,2,52,.81,52.41.42c.75-.73,1.88-.25,2.84-.3.75,0,.79.55.79,1.11Q56,3.85,56,6.47Z"/><path class="cls-2" d="M89.4,6.53c0,1.67,0,3.35,0,5,0,.95-.24,1.35-1.27,1.35s-1.26-.5-1.24-1.39c0-2.05.06-4.11,0-6.16,0-1.1.53-2.42-1.06-3.12C85.3,2,85.4,1,85.72.57c.77-1,2-.35,3-.43.75-.06.73.61.73,1.15C89.41,3,89.4,4.78,89.4,6.53Z"/><path class="cls-2" d="M103.57,6.6c0,1.67,0,3.35,0,5,0,1-.38,1.29-1.34,1.28s-1.18-.38-1.17-1.22c0-2.05.06-4.11,0-6.16,0-1.18.54-2.56-1.1-3.33C99.47,2,99.57.9,99.9.51c.73-.84,1.83-.3,2.77-.39.69-.07.9.39.9,1C103.56,2.95,103.57,4.77,103.57,6.6Z"/><path class="cls-2" d="M117.74,6.56c0,1.6,0,3.2,0,4.79,0,.93,0,1.57-1.29,1.56s-1.21-.81-1.21-1.65c0-2,0-4,0-5.93,0-1.11.48-2.41-1.08-3.11-.52-.24-.41-1.26-.09-1.67.7-.91,1.81-.33,2.74-.43s.94.53.94,1.19C117.73,3.06,117.74,4.81,117.74,6.56Z"/><path class="cls-2" d="M131.91,6.5c0,1.67,0,3.35,0,5,0,.91-.16,1.39-1.23,1.39s-1.29-.43-1.28-1.36c0-2.13.05-4.26,0-6.39,0-1,.48-2.27-1-2.9C127.81,2,127.91,1,128.21.6c.74-1.07,1.94-.35,2.93-.47.74-.08.77.57.77,1.12Q131.9,3.87,131.91,6.5Z"/><path class="cls-2" d="M146.07,6.53c0,1.67,0,3.35,0,5,0,.95-.24,1.35-1.27,1.35s-1.25-.5-1.24-1.39c0-2.05.06-4.11,0-6.16,0-1.1.53-2.42-1.06-3.12C142,2,142.07,1,142.39.57c.77-1,2-.35,3-.43.75-.06.73.61.73,1.15C146.07,3,146.07,4.78,146.07,6.53Z"/><path class="cls-2" d="M179.43,6.47c0,1.67,0,3.35,0,5,0,.88-.1,1.42-1.21,1.41s-1.32-.37-1.3-1.33q.06-3.31,0-6.62c0-1,.38-2.08-1-2.68-.61-.26-.5-1.46-.1-1.85.75-.73,1.88-.25,2.84-.3.75,0,.79.54.79,1.11Q179.43,3.85,179.43,6.47Z"/><path class="cls-2" d="M193.6,6.48c0,1.67,0,3.35,0,5,0,.89-.13,1.41-1.22,1.4s-1.31-.39-1.29-1.34c0-2.13.06-4.26,0-6.39,0-1,.49-2.25-1-2.91-.61-.27-.49-1.47-.1-1.85.76-.72,1.88-.25,2.85-.3.75,0,.78.56.78,1.11Q193.6,3.86,193.6,6.48Z"/><path class="cls-2" d="M212.8,6.57c0,1.37.07,2.74,0,4.11-.06.88.66,2.28-1.27,2.22s-1.09-1.48-1.16-2.33c-.12-1.66,0-3.35-.06-5-.06-1.17.57-2.57-1.09-3.34-.51-.24-.4-1.27-.08-1.68.71-.89,1.82-.31,2.75-.42.68-.08.93.34.92,1C212.79,2.92,212.79,4.74,212.8,6.57Z"/><path class="cls-2" d="M4.4,27c0,1.67,0,3.35,0,5,0,.89-.12,1.41-1.22,1.41s-1.31-.39-1.3-1.34c0-2.13.06-4.26,0-6.39,0-1,.5-2.25-1-2.91C.25,22.57.37,21.36.77,21c.76-.72,1.88-.25,2.85-.3.75,0,.79.55.78,1.11Q4.4,24.42,4.4,27Z"/><path class="cls-2" d="M18.57,27.37c0,1.37,0,2.74,0,4.11,0,.89.43,2-1.29,2s-1.16-1.08-1.17-1.9c0-1.82,0-3.65,0-5.48,0-1.18.55-2.56-1.09-3.34-.51-.24-.4-1.28-.08-1.68.71-.88,1.82-.31,2.76-.41.68-.07.92.35.92,1C18.56,23.57,18.56,25.47,18.57,27.37Z"/><path class="cls-2" d="M32.73,27.26c0,1.52,0,3,0,4.56,0,.84.16,1.65-1.19,1.65s-1.32-.63-1.31-1.56c0-2.13,0-4.26,0-6.39,0-1,.38-2.08-1-2.68-.62-.27-.5-1.46-.11-1.85.75-.74,1.87-.25,2.84-.31.75,0,.8.53.8,1.1Q32.73,24.52,32.73,27.26Z"/><path class="cls-2" d="M46.9,27.08c0,1.67,0,3.35,0,5,0,.93-.21,1.36-1.26,1.37S44.39,33,44.4,32.09c0-2.13,0-4.26,0-6.39,0-1,.44-2.26-1.06-2.89-.54-.23-.44-1.25-.13-1.67.76-1,1.95-.35,2.94-.44.74-.07.74.59.74,1.14Q46.9,24.46,46.9,27.08Z"/><path class="cls-2" d="M61.07,27.14A34.67,34.67,0,0,1,61,31c-.1.91.86,2.5-1.26,2.43s-1-1.66-1.15-2.55c-.17-1.58,0-3.19-.07-4.79-.06-1.18.56-2.57-1.09-3.34-.51-.24-.4-1.27-.08-1.68.71-.88,1.82-.31,2.75-.42.68-.07.92.35.92,1C61.06,23.49,61.06,25.31,61.07,27.14Z"/><path class="cls-2" d="M207.77,6.6c0,1.67,0,3.35,0,5,0,1-.39,1.29-1.34,1.28s-1.18-.38-1.17-1.22c0-2.05.06-4.11,0-6.16,0-1.18.54-2.56-1.1-3.33C203.67,2,203.77.9,204.1.51c.73-.84,1.83-.3,2.77-.39.69-.07.9.39.89,1C207.76,2.95,207.77,4.77,207.77,6.6Z"/><path class="cls-2" d="M75.24,27.1c0,1.67,0,3.35,0,5,0,.95-.24,1.34-1.27,1.35s-1.25-.5-1.24-1.39c0-2.05.06-4.11,0-6.16,0-1.11.53-2.42-1.06-3.12-.53-.23-.43-1.26-.11-1.67.77-1,2-.35,3-.43.74-.06.73.61.73,1.15C75.24,23.6,75.24,25.35,75.24,27.1Z"/><path class="cls-2" d="M89.4,27.21c0,1.67,0,3.35,0,5,0,.84-.23,1.23-1.15,1.23s-1.39-.24-1.36-1.27c.05-1.9.09-3.81,0-5.7-.08-1.3.71-2.89-1.13-3.78-.44-.22-.38-1.31,0-1.68.76-.77,1.86-.28,2.81-.35.72-.05.85.46.85,1.06C89.39,23.56,89.4,25.39,89.4,27.21Z"/><path class="cls-2" d="M103.57,27.19c0,1.67,0,3.35,0,5,0,.82-.18,1.25-1.13,1.25s-1.41-.2-1.38-1.25c.06-2,.08-4,0-5.93-.06-1.24.62-2.73-1.12-3.56-.46-.22-.38-1.3,0-1.68.75-.8,1.85-.29,2.79-.37.71-.06.87.43.87,1C103.56,23.54,103.57,25.37,103.57,27.19Z"/><path class="cls-2" d="M117.74,27.09c0,1.67,0,3.35,0,5,0,.94-.22,1.36-1.26,1.36s-1.27-.48-1.25-1.38c0-2.05.06-4.11,0-6.16,0-1.1.55-2.42-1.06-3.12-.54-.23-.43-1.25-.12-1.67.76-1,2-.35,2.95-.44.74-.07.74.6.74,1.14Q117.74,24.46,117.74,27.09Z"/><path class="cls-2" d="M131.9,27.27c0,1.6,0,3.2,0,4.79,0,.88-.11,1.42-1.21,1.41s-1.32-.38-1.3-1.33c0-2.13.06-4.26,0-6.39,0-1,.51-2.25-1-2.91-.61-.26-.5-1.47-.1-1.85.75-.73,1.88-.25,2.84-.3.75,0,.79.55.79,1.11Q131.9,24.53,131.9,27.27Z"/><path class="cls-2" d="M165.27,27.27c0,1.6,0,3.2,0,4.79,0,.88-.11,1.42-1.21,1.41s-1.32-.38-1.3-1.33c0-2.13.06-4.26,0-6.39,0-1,.51-2.25-1-2.91-.61-.26-.5-1.47-.1-1.85.75-.73,1.88-.25,2.84-.3.75,0,.79.55.79,1.11Q165.26,24.53,165.27,27.27Z"/><path class="cls-2" d="M179,27c0,1.67,0,3.35,0,5,0,.83,0,1.43-1.17,1.46s-1.36-.55-1.34-1.53c0-1.82.09-3.66,0-5.47-.08-1.31.7-2.89-1.14-3.78-.43-.21-.37-1.32,0-1.68.77-.74,1.87-.27,2.82-.33.73,0,.84.48.83,1.07C179,23.5,179,25.25,179,27Z"/><path class="cls-2" d="M193.14,27.15c0,1.52,0,3,0,4.56,0,.92.17,1.8-1.31,1.77s-1.18-.86-1.18-1.68c0-1.9,0-3.8,0-5.7,0-1.18.55-2.56-1.09-3.33-.5-.24-.4-1.28-.07-1.68.72-.87,1.82-.31,2.76-.41.68-.07.91.36.91,1C193.14,23.5,193.14,25.32,193.14,27.15Z"/><path class="cls-2" d="M207.31,27.1c0,1.67,0,3.35,0,5,0,1-.25,1.34-1.28,1.35s-1.25-.51-1.24-1.39c0-2.05.06-4.11,0-6.16,0-1.11.52-2.42-1.07-3.12-.53-.23-.42-1.25-.11-1.67.69-.94,1.8-.34,2.73-.45s1,.5,1,1.17C207.3,23.6,207.31,25.35,207.31,27.1Z"/><path class="cls-2" d="M221,27c0,1.75,0,3.5,0,5.25,0,.86-.25,1.21-1.17,1.22s-1.38-.27-1.35-1.28c.05-1.9.09-3.81,0-5.7-.07-1.31.7-2.89-1.13-3.78-.43-.21-.37-1.32,0-1.68.77-.75,1.86-.27,2.82-.34.73,0,.84.47.84,1.07C221,23.5,221,25.25,221,27Z"/><path class="cls-2" d="M4.4,47.83c0,1.6,0,3.2,0,4.79C4.43,53.51,4.3,54,3.2,54s-1.32-.38-1.3-1.33c0-2.13.06-4.26,0-6.39,0-1,.51-2.25-1-2.91-.61-.26-.5-1.47-.1-1.85.75-.73,1.88-.25,2.84-.3.75,0,.79.55.79,1.11Q4.4,45.1,4.4,47.83Z"/><path class="cls-2" d="M18.57,47.9c0,1.6,0,3.2,0,4.79,0,1-.27,1.33-1.28,1.34s-1.24-.52-1.23-1.4c0-2.05.05-4.11,0-6.16,0-1.11.5-2.41-1.07-3.11-.53-.23-.42-1.25-.1-1.67.69-.93,1.81-.34,2.73-.44s1,.51,1,1.18C18.56,44.25,18.57,46.08,18.57,47.9Z"/><path class="cls-2" d="M32.73,47.57c0,1.67,0,3.35,0,5,0,.84,0,1.43-1.17,1.45s-1.36-.56-1.34-1.53c0-1.82.09-3.66,0-5.47-.08-1.31.69-2.88-1.14-3.78-.43-.21-.37-1.32,0-1.68.77-.74,1.87-.27,2.82-.33.73,0,.83.48.83,1.07C32.73,44.07,32.73,45.82,32.73,47.57Z"/><path class="cls-2" d="M46.9,47.61c0,1.67,0,3.35,0,5,0,.89-.12,1.41-1.22,1.4s-1.31-.39-1.29-1.34c0-2.13.06-4.26,0-6.39,0-1,.49-2.25-1-2.91-.61-.27-.5-1.47-.1-1.85.76-.72,1.88-.25,2.85-.3.75,0,.78.56.78,1.11Q46.9,45,46.9,47.61Z"/><path class="cls-2" d="M61.07,47.61c0,1.67,0,3.35,0,5,0,.89-.13,1.41-1.22,1.4s-1.31-.39-1.29-1.34c0-2.13.06-4.26,0-6.39,0-1,.49-2.25-1-2.91-.61-.27-.49-1.47-.1-1.85.76-.72,1.88-.25,2.85-.3.75,0,.78.56.78,1.11Q61.07,45,61.07,47.61Z"/><path class="cls-2" d="M75.23,47.75c0,1.67,0,3.35,0,5,0,1-.42,1.27-1.36,1.26s-1.17-.41-1.15-1.24c0-2,.08-4,0-5.93-.06-1.24.64-2.73-1.11-3.56-.47-.23-.39-1.3,0-1.68.74-.81,1.84-.29,2.79-.38.7-.06.88.41.88,1C75.23,44.1,75.23,45.92,75.23,47.75Z"/><path class="cls-2" d="M89.4,47.71c0,1.52,0,3,0,4.56,0,.92.17,1.8-1.31,1.77s-1.18-.86-1.18-1.68c0-1.9,0-3.8,0-5.7,0-1.18.55-2.56-1.09-3.33-.5-.24-.4-1.28-.07-1.68.72-.87,1.82-.31,2.76-.41.68-.07.91.36.91,1C89.39,44.06,89.4,45.89,89.4,47.71Z"/><path class="cls-2" d="M103.57,47.63c0,1.67,0,3.35,0,5,0,.91-.16,1.39-1.23,1.39s-1.3-.42-1.28-1.35c0-2.13.05-4.26,0-6.39,0-1,.47-2.24-1-2.91-.6-.26-.49-1.47-.08-1.85.77-.7,1.88-.25,2.85-.29.75,0,.77.57.77,1.13Q103.57,45,103.57,47.63Z"/><path class="cls-2" d="M117.74,47.69c0,1.6,0,3.2,0,4.79,0,.94,0,1.57-1.29,1.56s-1.21-.81-1.21-1.65c0-2,0-4,0-5.93,0-1.12.47-2.41-1.08-3.11-.52-.24-.41-1.26-.09-1.67.7-.91,1.81-.33,2.74-.43s.94.53.94,1.2C117.73,44.19,117.74,45.94,117.74,47.69Z"/><path class="cls-2" d="M131.9,47.73c0,1.67,0,3.35,0,5,0,1-.39,1.29-1.34,1.28s-1.18-.38-1.17-1.22c0-2.05.06-4.11,0-6.16,0-1.18.54-2.56-1.1-3.33-.49-.23-.39-1.28-.05-1.67.73-.84,1.83-.3,2.77-.39.69-.07.9.39.89,1C131.9,44.08,131.9,45.9,131.9,47.73Z"/><path class="cls-2" d="M146.07,47.73c0,1.67,0,3.35,0,5,0,1-.39,1.29-1.34,1.28s-1.18-.38-1.17-1.22c0-2.05.06-4.11,0-6.16,0-1.18.54-2.56-1.1-3.33-.49-.23-.39-1.28-.05-1.67.73-.84,1.83-.3,2.77-.39.69-.07.9.39.89,1C146.06,44.08,146.07,45.9,146.07,47.73Z"/><path class="cls-2" d="M36.39,68.13c0,1.67,0,3.35,0,5,0,.83,0,1.43-1.17,1.46s-1.36-.55-1.34-1.53c0-1.82.09-3.66,0-5.47-.08-1.31.7-2.89-1.14-3.78-.43-.21-.37-1.32,0-1.68.77-.74,1.87-.27,2.82-.33.73,0,.84.48.83,1.07C36.38,64.63,36.39,66.38,36.39,68.13Z"/><path class="cls-2" d="M179,47.65c0,1.67,0,3.35,0,5,0,.93-.21,1.37-1.25,1.37s-1.27-.47-1.26-1.38c0-2.13,0-4.26,0-6.39,0-1,.44-2.26-1.06-2.89-.54-.23-.44-1.25-.13-1.67.76-1,1.95-.35,2.94-.45.74-.07.75.59.75,1.13Q179,45,179,47.65Z"/><path class="cls-2" d="M193.14,47.82c0,1.45,0,2.89,0,4.33,0,.82.41,1.86-1.18,1.89s-1.3-.88-1.3-1.78c0-2.05,0-4.11,0-6.16,0-1,.38-2.08-1-2.69-.62-.27-.51-1.46-.11-1.85.75-.73,1.87-.27,2.83-.32.74,0,.8.53.8,1.1Q193.14,45.08,193.14,47.82Z"/><path class="cls-2" d="M207.31,47.64c0,1.67,0,3.35,0,5,0,.92-.19,1.37-1.25,1.38s-1.28-.45-1.27-1.37c0-2.13,0-4.26,0-6.39,0-1,.45-2.26-1.05-2.9-.54-.23-.44-1.24-.14-1.67.75-1,1.94-.35,2.94-.45.74-.08.75.58.75,1.13Q207.31,45,207.31,47.64Z"/><path class="cls-2" d="M221,47.73c0,1.67,0,3.35,0,5,0,1-.38,1.29-1.34,1.28s-1.18-.38-1.17-1.22c0-2.05.06-4.11,0-6.16,0-1.18.54-2.57-1.1-3.33-.49-.23-.39-1.28-.06-1.68.73-.87,1.84-.28,2.77-.39.69-.08.9.38.89,1C221,44.08,221,45.9,221,47.73Z"/><path class="cls-2" d="M22.22,68.23c0,1.67,0,3.35,0,5,0,.95-.24,1.35-1.27,1.35s-1.25-.5-1.24-1.39c0-2.05.06-4.11,0-6.16,0-1.1.53-2.42-1.06-3.12-.53-.23-.43-1.26-.11-1.67.77-1,2-.35,3-.43.75-.06.73.61.73,1.15C22.22,64.73,22.22,66.48,22.22,68.23Z"/><path class="cls-2" d="M50.56,68.19c0,1.67,0,3.35,0,5,0,.91-.16,1.39-1.23,1.39s-1.3-.42-1.28-1.35c0-2.13.05-4.26,0-6.39,0-1,.47-2.24-1-2.91-.6-.26-.49-1.47-.08-1.85.77-.7,1.88-.25,2.85-.29.75,0,.77.57.77,1.13Q50.56,65.57,50.56,68.19Z"/><path class="cls-2" d="M56,68.25c0,1.67,0,3.35,0,5,0,1-.28,1.32-1.29,1.33s-1.23-.53-1.22-1.41c0-2.05.05-4.11,0-6.16,0-1.11.49-2.41-1.08-3.11-.52-.23-.41-1.26-.1-1.67.7-.92,1.81-.33,2.74-.43s1,.52.95,1.19C56,64.75,56,66.5,56,68.25Z"/><path class="cls-2" d="M70.21,68.4c0,1.52,0,3,0,4.56,0,.84.15,1.64-1.2,1.65S67.7,74,67.71,73c0-2.13,0-4.26,0-6.39,0-1,.38-2.08-1-2.68-.61-.26-.5-1.46-.1-1.85.75-.73,1.88-.25,2.84-.3.75,0,.79.54.79,1.11Q70.21,65.66,70.21,68.4Z"/><path class="cls-2" d="M84.37,68.32c0,1.67,0,3.35,0,5,0,.82-.18,1.25-1.13,1.25s-1.41-.2-1.38-1.25c.06-2,.08-4,0-5.93-.06-1.24.62-2.73-1.12-3.56-.46-.22-.38-1.3,0-1.68.75-.8,1.85-.29,2.79-.37.71-.06.87.43.87,1C84.37,64.67,84.37,66.5,84.37,68.32Z"/><path class="cls-2" d="M98.54,68.33c0,1.67,0,3.35,0,5,0,.82-.19,1.25-1.14,1.25S96,74.39,96,73.34c.06-2,.08-4,0-5.93-.05-1.24.62-2.73-1.12-3.56-.46-.22-.38-1.3,0-1.68.75-.82,1.85-.27,2.8-.36.71-.07.87.43.86,1C98.53,64.67,98.54,66.5,98.54,68.33Z"/><path class="cls-2" d="M104,68.36c0,1.6,0,3.19,0,4.79,0,.83,0,1.43-1.17,1.46s-1.36-.55-1.34-1.53c0-1.82.09-3.66,0-5.47-.08-1.31.7-2.89-1.14-3.78-.43-.21-.37-1.32,0-1.68.77-.75,1.86-.27,2.82-.34.73,0,.84.48.83,1.07C104,64.71,104,66.53,104,68.36Z"/><path class="cls-2" d="M109.51,68.32c0,1.67,0,3.35,0,5,0,.81-.17,1.26-1.12,1.26S107,74.41,107,73.35c.06-2,.08-4,0-5.93-.06-1.24.63-2.73-1.11-3.56-.47-.22-.39-1.3,0-1.68.74-.81,1.84-.29,2.79-.37.7-.06.88.42.88,1C109.5,64.66,109.51,66.49,109.51,68.32Z"/><path class="cls-2" d="M123.68,68.14c0,1.6,0,3.19,0,4.79,0,.82.2,1.65-1.17,1.68s-1.32-.85-1.32-1.77c0-1.75.08-3.5,0-5.25-.08-1.31.66-2.88-1.14-3.78-.42-.21-.37-1.33,0-1.68.78-.73,1.87-.27,2.83-.32.74,0,.82.5.82,1.08C123.67,64.64,123.68,66.39,123.68,68.14Z"/><path class="cls-2" d="M156.58,68.5c0,1.37,0,2.74,0,4.11,0,.89.43,2-1.29,2s-1.16-1.08-1.17-1.9c0-1.82,0-3.65,0-5.48,0-1.18.55-2.56-1.09-3.34-.51-.24-.4-1.28-.08-1.68.71-.88,1.82-.31,2.76-.41.68-.07.92.35.92,1C156.57,64.7,156.58,66.6,156.58,68.5Z"/><path class="cls-2" d="M170.75,68.29c0,1.67,0,3.35,0,5,0,1-.38,1.29-1.34,1.28s-1.18-.38-1.17-1.22c0-2.05.06-4.11,0-6.16,0-1.18.54-2.56-1.1-3.33-.49-.23-.39-1.29-.06-1.68.73-.84,1.83-.3,2.77-.39.69-.07.9.39.9,1C170.74,64.64,170.75,66.47,170.75,68.29Z"/><path class="cls-2" d="M184.92,68.28c0,1.52,0,3,0,4.56,0,.92.17,1.8-1.31,1.77s-1.18-.86-1.18-1.68c0-1.9,0-3.8,0-5.7,0-1.18.55-2.56-1.09-3.33-.5-.24-.4-1.28-.07-1.68.72-.87,1.82-.31,2.76-.41.68-.07.91.36.91,1C184.91,64.63,184.92,66.45,184.92,68.28Z"/><path class="cls-2" d="M198.63,68.25c0,1.67,0,3.35,0,5,0,1-.28,1.32-1.29,1.33s-1.23-.53-1.22-1.41c0-2.05.05-4.11,0-6.16,0-1.11.49-2.41-1.08-3.11-.52-.23-.41-1.26-.1-1.67.7-.92,1.81-.33,2.74-.43s1,.52.95,1.19C198.62,64.75,198.63,66.5,198.63,68.25Z"/><path class="cls-2" d="M212.8,68.18c0,1.67,0,3.35,0,5,0,.9-.13,1.4-1.22,1.4s-1.31-.4-1.29-1.34c0-2.13.06-4.26,0-6.39,0-1,.48-2.24-1-2.91-.61-.27-.49-1.47-.09-1.85.76-.71,1.88-.25,2.85-.29.75,0,.78.56.78,1.12Q212.79,65.56,212.8,68.18Z"/><path class="cls-2" d="M119.56,88.84c0,1.52,0,3,0,4.56,0,.92.17,1.8-1.31,1.77s-1.18-.86-1.18-1.68c0-1.9,0-3.8,0-5.7,0-1.18.55-2.56-1.09-3.33-.5-.24-.4-1.28-.07-1.68.72-.87,1.82-.31,2.76-.41.68-.07.91.36.91,1C119.56,85.19,119.56,87,119.56,88.84Z"/><path class="cls-2" d="M6.23,88.74c0,1.67,0,3.35,0,5,0,.89-.12,1.41-1.21,1.41s-1.32-.39-1.3-1.34c0-2.13.06-4.26,0-6.39,0-1,.5-2.25-1-2.91-.61-.26-.5-1.47-.1-1.85.76-.72,1.88-.25,2.84-.3.75,0,.79.55.79,1.11Q6.23,86.12,6.23,88.74Z"/><path class="cls-2" d="M20.39,89c0,1.52,0,3,0,4.56,0,.84.16,1.65-1.19,1.65s-1.32-.63-1.31-1.56c0-2.13,0-4.26,0-6.39,0-1,.38-2.08-1-2.68-.62-.27-.5-1.46-.11-1.85.75-.74,1.87-.25,2.84-.31.75,0,.8.53.8,1.1Q20.39,86.22,20.39,89Z"/><path class="cls-2" d="M34.56,89c0,1.52,0,3,0,4.56,0,.84.15,1.64-1.2,1.65s-1.31-.64-1.3-1.57c0-2.13,0-4.26,0-6.39,0-1,.38-2.08-1-2.68-.61-.26-.5-1.46-.1-1.85.75-.73,1.88-.25,2.84-.3.75,0,.79.54.79,1.11Q34.56,86.22,34.56,89Z"/><path class="cls-2" d="M48.73,88.73c0,1.6,0,3.19,0,4.79,0,.84.15,1.64-1.2,1.65s-1.31-.64-1.3-1.56c0-2.13,0-4.26,0-6.39,0-1,.38-2.08-1-2.68-.61-.26-.5-1.46-.11-1.85.75-.74,1.88-.25,2.84-.31.75,0,.79.54.79,1.1Q48.73,86.11,48.73,88.73Z"/><path class="cls-2" d="M62.9,88.84c0,1.52,0,3,0,4.56,0,.92.17,1.8-1.31,1.77s-1.18-.85-1.18-1.67c0-1.9.05-3.8,0-5.7,0-1.18.55-2.56-1.09-3.33-.51-.24-.4-1.27-.07-1.68.71-.87,1.82-.31,2.76-.41.68-.07.92.36.91,1C62.89,85.19,62.89,87,62.9,88.84Z"/><path class="cls-2" d="M77.06,88.7c0,1.67,0,3.35,0,5,0,.83,0,1.43-1.17,1.46s-1.36-.55-1.34-1.53c0-1.82.09-3.66,0-5.47-.08-1.31.7-2.89-1.14-3.78-.43-.21-.37-1.32,0-1.68.77-.74,1.87-.27,2.82-.33.73,0,.84.48.83,1.07C77.06,85.2,77.06,86.95,77.06,88.7Z"/><path class="cls-2" d="M91.23,88.9c0,1.67,0,3.35,0,5,0,.83-.21,1.24-1.14,1.24s-1.4-.22-1.37-1.26c.06-2,.07-4,0-5.93-.05-1.25.61-2.73-1.13-3.55-.45-.22-.38-1.31,0-1.68.75-.78,1.85-.28,2.8-.36.71-.05.86.44.86,1C91.22,85.25,91.23,87.07,91.23,88.9Z"/><path class="cls-2" d="M105.4,88.8c0,1.67,0,3.35,0,5,0,1-.26,1.34-1.28,1.35s-1.25-.51-1.23-1.4c0-2.05.06-4.11,0-6.16,0-1.11.51-2.41-1.07-3.12-.53-.23-.42-1.25-.11-1.67.69-.94,1.8-.34,2.73-.44s1,.5,1,1.18C105.39,85.3,105.4,87.05,105.4,88.8Z"/><path class="cls-2" d="M133.73,89c0,1.6,0,3.2,0,4.79,0,.88-.11,1.42-1.21,1.41s-1.32-.38-1.3-1.33c0-2.13.06-4.26,0-6.39,0-1,.51-2.25-1-2.91-.61-.26-.5-1.47-.1-1.85.75-.73,1.88-.25,2.84-.3.75,0,.79.55.79,1.11Q133.73,86.23,133.73,89Z"/><path class="cls-2" d="M147.9,89c0,1.52,0,3,0,4.56,0,.84.15,1.64-1.2,1.65s-1.31-.64-1.3-1.57c0-2.13,0-4.26,0-6.39,0-1,.38-2.08-1-2.68-.61-.26-.5-1.46-.1-1.85.75-.73,1.88-.25,2.84-.3.75,0,.79.54.79,1.11Q147.9,86.22,147.9,89Z"/><path class="cls-2" d="M161.61,88.78c0,1.67,0,3.35,0,5,0,.94-.22,1.36-1.26,1.36s-1.27-.48-1.25-1.38c0-2.05.06-4.11,0-6.16,0-1.1.55-2.42-1.06-3.12-.54-.23-.43-1.25-.12-1.67.76-1,2-.35,2.95-.44.74-.07.74.6.74,1.14Q161.61,86.16,161.61,88.78Z"/><path class="cls-2" d="M175.78,88.92c0,1.6,0,3.19,0,4.79,0,.83,0,1.43-1.17,1.46s-1.36-.55-1.34-1.53c0-1.82.09-3.66,0-5.47-.08-1.31.7-2.89-1.14-3.78-.43-.21-.37-1.32,0-1.68.77-.75,1.86-.27,2.82-.34.73,0,.84.48.83,1.07C175.77,85.27,175.78,87.1,175.78,88.92Z"/><path class="cls-2" d="M181.26,88.73c0,1.52,0,3,0,4.56,0,.82.4,1.86-1.18,1.88s-1.3-.88-1.3-1.79c0-2.05,0-4.11,0-6.16,0-1,.38-2.08-1-2.68-.62-.27-.51-1.46-.11-1.85.75-.73,1.87-.27,2.83-.32.74,0,.8.53.8,1.1Q181.26,86.1,181.26,88.73Z"/><path class="cls-2" d="M186.29,88.75c0,1.67,0,3.35,0,5,0,.9-.13,1.4-1.22,1.4s-1.31-.4-1.29-1.34c0-2.13.06-4.26,0-6.39,0-1,.48-2.24-1-2.91-.61-.27-.49-1.47-.09-1.85.76-.71,1.88-.25,2.85-.29.75,0,.78.56.78,1.12Q186.29,86.12,186.29,88.75Z"/><path class="cls-2" d="M3.94,6.5c0,1.67,0,3.35,0,5,0,.91-.17,1.39-1.24,1.39s-1.29-.43-1.28-1.36c0-2.13.05-4.26,0-6.39,0-1,.47-2.27-1-2.9C-.16,2-.05,1,.25.59,1-.47,2.19.24,3.18.13c.73-.08.76.57.76,1.12Q3.94,3.87,3.94,6.5Z"/><path class="cls-2" d="M27.71,6.49c0,1.67,0,3.35,0,5,0,.9-.14,1.4-1.23,1.4s-1.3-.41-1.29-1.35c0-2.13.05-4.26,0-6.39,0-1,.48-2.24-1-2.91C23.56,2,23.67.79,24.08.41,24.84-.3,26,.16,26.93.12c.75,0,.77.57.78,1.12Q27.71,3.86,27.71,6.49Z"/><path class="cls-2" d="M41.87,6.6c0,1.67,0,3.35,0,5,0,1-.38,1.29-1.34,1.28s-1.18-.38-1.17-1.22c0-2.05.06-4.11,0-6.16,0-1.18.54-2.56-1.1-3.33C37.77,2,37.87.9,38.21.51,38.93-.34,40,.2,41,.11c.69-.07.9.39.9,1C41.86,2.95,41.87,4.77,41.87,6.6Z"/><path class="cls-2" d="M219.19,88.74c0,1.67,0,3.35,0,5,0,.89-.12,1.41-1.22,1.41s-1.31-.39-1.3-1.34c0-2.13.06-4.26,0-6.39,0-1,.5-2.25-1-2.91-.61-.26-.5-1.47-.1-1.85.76-.72,1.88-.25,2.85-.3.75,0,.79.55.78,1.11Q219.19,86.12,219.19,88.74Z"/><path class="cls-3" d="M136,47.57c.17-1.48-.11-3.72,1.63-3.76s1.65,2.18,1.66,3.66.18,3.92-1.59,4S136.17,49.08,136,47.57Z"/><path class="cls-3" d="M11.37,6.59c-.18,1.45.1,3.69-1.65,3.72S8.09,8.12,8.08,6.64,7.9,2.72,9.68,2.69,11.22,5,11.37,6.59Z"/><path class="cls-3" d="M21,6.48c-.19,1.56.08,3.81-1.66,3.83s-1.63-2.2-1.65-3.67-.18-3.92,1.6-3.95S20.76,5.06,21,6.48Z"/><path class="cls-3" d="M149.86,68c-.18,1.63.09,3.92-1.6,3.94-1.9,0-1.71-2.27-1.71-3.8s-.15-3.75,1.53-3.78C150.1,64.36,149.58,66.73,149.86,68Z"/><path class="cls-3" d="M35.14,6.45c-.19,1.5.16,3.88-1.71,3.85s-1.6-2.39-1.59-4-.11-3.69,1.66-3.66S35,5,35.14,6.45Z"/><path class="cls-3" d="M136.91,68.11c.17-1.46-.1-3.71,1.64-3.73s1.64,2.19,1.65,3.67.17,3.92-1.6,3.94S137.07,69.64,136.91,68.11Z"/><path class="cls-3" d="M49.3,6.42c-.17,1.52.16,3.9-1.69,3.88S46,7.91,46,6.36s-.1-3.7,1.65-3.68S49.14,4.94,49.3,6.42Z"/><path class="cls-3" d="M130.66,68.2c-.17,1.5.09,3.79-1.61,3.79-1.9,0-1.67-2.31-1.69-3.84s-.14-3.76,1.55-3.76C130.85,64.39,130.45,66.73,130.66,68.2Z"/><path class="cls-3" d="M63.48,6.51c-.23,1.44.2,3.79-1.75,3.79-1.68,0-1.56-2.28-1.55-3.76S60,2.7,61.87,2.7C63.58,2.7,63.31,5,63.48,6.51Z"/><path class="cls-3" d="M73.07,6.69c-.2,1.44.12,3.63-1.74,3.62-1.6,0-1.55-2.13-1.55-3.55,0-1.6-.29-4,1.68-4.05C73.25,2.71,72.9,5.15,73.07,6.69Z"/><path class="cls-3" d="M82.67,6.6c-.18,1.44.1,3.69-1.65,3.71s-1.63-2.2-1.65-3.68S79.2,2.71,81,2.69,82.52,5,82.67,6.6Z"/><path class="cls-3" d="M116.94,68.13c-.18,1.51.16,3.89-1.7,3.86s-1.61-2.39-1.59-3.95-.11-3.7,1.65-3.67S116.77,66.65,116.94,68.13Z"/><path class="cls-3" d="M96.84,6.56c-.26,1.41.21,3.76-1.77,3.73-1.66,0-1.54-2.3-1.52-3.78s-.23-3.83,1.71-3.8C96.95,2.73,96.68,5,96.84,6.56Z"/><path class="cls-3" d="M88.46,68.42c.16-1.67-.14-4,1.7-4s1.62,2.38,1.61,3.94S91.87,72,90.12,72,88.68,69.73,88.46,68.42Z"/><path class="cls-3" d="M111,6.42c-.17,1.52.16,3.9-1.7,3.87s-1.61-2.39-1.6-3.94-.11-3.7,1.65-3.67S110.83,4.95,111,6.42Z"/><path class="cls-3" d="M77.64,68.17c-.21,1.47.17,3.86-1.72,3.81s-1.6-2.4-1.57-4-.12-3.69,1.67-3.64S77.47,66.67,77.64,68.17Z"/><path class="cls-3" d="M125.17,6.6c-.18,1.44.1,3.69-1.65,3.71s-1.63-2.2-1.65-3.68-.17-3.92,1.6-3.94S125,5,125.17,6.6Z"/><path class="cls-3" d="M63.49,68.11C63.3,69.7,63.57,72,61.87,72c-1.9,0-1.67-2.32-1.68-3.84s-.14-3.76,1.55-3.76C63.71,64.39,63.24,66.74,63.49,68.11Z"/><path class="cls-3" d="M139.34,6.41c-.17,1.52.16,3.91-1.69,3.89S136,7.92,136,6.36s-.1-3.7,1.64-3.68S139.17,4.94,139.34,6.41Z"/><path class="cls-3" d="M40.48,68.11c.17-1.46-.1-3.71,1.64-3.73s1.64,2.19,1.65,3.67S43.95,72,42.18,72,40.64,69.64,40.48,68.11Z"/><path class="cls-3" d="M153.5,6.6c-.18,1.44.1,3.69-1.65,3.71s-1.63-2.2-1.65-3.68-.18-3.92,1.6-3.94S153.35,5,153.5,6.6Z"/><path class="cls-3" d="M163.11,6.3c-.18,1.64.14,4-1.71,4s-1.61-2.38-1.6-3.94-.1-3.7,1.64-3.68S162.89,5,163.11,6.3Z"/><path class="cls-3" d="M172.7,6.56c-.26,1.41.21,3.76-1.78,3.72-1.66,0-1.54-2.3-1.52-3.79s-.23-3.83,1.71-3.8C172.81,2.73,172.57,5,172.7,6.56Z"/><path class="cls-3" d="M26.31,68.12c.25-1.41-.22-3.76,1.77-3.72,1.67,0,1.53,2.3,1.52,3.78S29.79,72,27.88,72C26.21,72,26.47,69.67,26.31,68.12Z"/><path class="cls-3" d="M186.86,6.6c-.18,1.44.1,3.69-1.65,3.71s-1.63-2.2-1.65-3.68-.17-3.92,1.6-3.94S186.71,5,186.86,6.6Z"/><path class="cls-3" d="M159.3,47.73c.15-1.55-.15-3.93,1.69-3.91s1.62,2.38,1.61,3.94.11,3.7-1.64,3.68S159.48,49.18,159.3,47.73Z"/><path class="cls-3" d="M201,6.68c-.18,1.5,0,3.65-1.63,3.64-1.82,0-1.65-2.18-1.68-3.65s-.17-4,1.57-4C201.28,2.73,200.85,5.19,201,6.68Z"/><path class="cls-3" d="M65.14,27.09c.18-1.58-.09-3.83,1.66-3.85s1.64,2.19,1.65,3.67.17,3.92-1.6,3.95S65.37,28.49,65.14,27.09Z"/><path class="cls-3" d="M15.49,68.17c-.21,1.47.17,3.86-1.72,3.81s-1.6-2.4-1.57-4-.12-3.69,1.67-3.64S15.32,66.67,15.49,68.17Z"/><path class="cls-3" d="M219.77,6.69c-.2,1.44.12,3.63-1.74,3.62-1.6,0-1.55-2.13-1.55-3.55,0-1.6-.29-4,1.68-4.05C220,2.71,219.6,5.15,219.77,6.69Z"/><path class="cls-3" d="M165.7,88.7c.24-1.42-.22-3.76,1.77-3.73,1.68,0,1.53,2.3,1.53,3.78s.19,3.83-1.72,3.8C165.6,92.53,165.86,90.24,165.7,88.7Z"/><path class="cls-3" d="M154.88,88.77c-.17,1.5.09,3.79-1.61,3.79-1.9,0-1.67-2.31-1.69-3.84S151.45,85,153.14,85C155.07,85,154.67,87.29,154.88,88.77Z"/><path class="cls-3" d="M141.18,88.66c-.18,1.6.08,3.9-1.62,3.9-1.91,0-1.67-2.31-1.69-3.84S137.73,85,139.42,85C141.41,84.95,140.92,87.31,141.18,88.66Z"/><path class="cls-3" d="M127,88.7c-.17,1.53.1,3.82-1.58,3.85-1.9,0-1.72-2.26-1.72-3.8S123.56,85,125.23,85C127.21,84.93,126.76,87.28,127,88.7Z"/><path class="cls-3" d="M109.51,88.29c.15-1.24,0-3.34,1.61-3.37s1.58,2.05,1.66,3.46a6.63,6.63,0,0,1-.39,3.12c-.26.59-.55,1.18-1.2,1.21s-1-.56-1.24-1.14A7.88,7.88,0,0,1,109.51,88.29Z"/><path class="cls-3" d="M98.66,88.86c-.18,1.44.1,3.69-1.65,3.71s-1.63-2.2-1.65-3.68S95.19,85,97,85,98.51,87.31,98.66,88.86Z"/><path class="cls-3" d="M84.49,88.68c-.17,1.52.16,3.9-1.69,3.88s-1.61-2.38-1.6-3.94-.1-3.7,1.65-3.68S84.33,87.2,84.49,88.68Z"/><path class="cls-3" d="M70.34,88.56c-.18,1.64.14,4-1.71,4S67,90.18,67,88.62s-.1-3.7,1.65-3.68S70.12,87.22,70.34,88.56Z"/><path class="cls-3" d="M56.16,88.86c-.18,1.45.1,3.69-1.65,3.72s-1.63-2.2-1.65-3.67S52.69,85,54.46,85,56,87.31,56.16,88.86Z"/><path class="cls-3" d="M42,88.72c-.2,1.48.17,3.87-1.72,3.83s-1.6-2.4-1.58-4-.12-3.69,1.66-3.65S41.82,87.23,42,88.72Z"/><path class="cls-3" d="M27.83,88.82c-.25,1.41.21,3.77-1.77,3.74-1.66,0-1.54-2.3-1.52-3.78s-.23-3.83,1.71-3.8C27.94,85,27.66,87.28,27.83,88.82Z"/><path class="cls-3" d="M10.31,88.69c.25-1.41-.22-3.76,1.77-3.72,1.67,0,1.53,2.3,1.52,3.78s.19,3.82-1.72,3.79C10.21,92.52,10.47,90.23,10.31,88.69Z"/><path class="cls-3" d="M219.77,68.45c-.18,1.42,0,3.57-1.62,3.56-1.82,0-1.65-2.18-1.68-3.65s-.17-4,1.57-4C220,64.42,219.6,66.88,219.77,68.45Z"/><path class="cls-3" d="M202.71,68.22c.18-1.58-.09-3.83,1.66-3.85S206,66.57,206,68s.17,3.92-1.6,3.95S202.93,69.62,202.71,68.22Z"/><path class="cls-3" d="M191.9,68.19c-.17,1.5.09,3.8-1.6,3.8-1.91,0-1.67-2.31-1.69-3.84s-.14-3.75,1.55-3.76C192.1,64.39,191.69,66.73,191.9,68.19Z"/><path class="cls-3" d="M174.83,68.22c.18-1.58-.09-3.83,1.66-3.85s1.64,2.19,1.65,3.67.17,3.92-1.6,3.95S175.05,69.62,174.83,68.22Z"/><path class="cls-3" d="M164,68.13c-.17,1.53.1,3.82-1.58,3.85-1.9,0-1.72-2.26-1.72-3.8s-.15-3.75,1.52-3.78C164.23,64.36,163.78,66.71,164,68.13Z"/><path class="cls-3" d="M5.89,68.17C5.69,69.64,6.06,72,4.17,72s-1.6-2.4-1.57-4-.12-3.69,1.67-3.64S5.72,66.67,5.89,68.17Z"/><path class="cls-3" d="M11.83,27c-.17,1.52.16,3.9-1.69,3.88s-1.61-2.38-1.6-3.94-.1-3.7,1.65-3.68S11.66,25.51,11.83,27Z"/><path class="cls-3" d="M210.95,47.73c.15-1.55-.15-3.93,1.69-3.91s1.62,2.38,1.61,3.94.11,3.7-1.64,3.68S211.12,49.18,210.95,47.73Z"/><path class="cls-3" d="M22.65,27c.17-1.48-.11-3.72,1.63-3.76s1.65,2.18,1.66,3.66.18,3.92-1.59,4S22.83,28.51,22.65,27Z"/><path class="cls-3" d="M200.58,47.54c-.17,1.52.16,3.91-1.69,3.89s-1.61-2.38-1.6-3.94-.1-3.7,1.64-3.68S200.41,46.07,200.58,47.54Z"/><path class="cls-3" d="M40.16,27.16c-.18,1.45.1,3.7-1.65,3.72s-1.63-2.2-1.65-3.68-.18-3.92,1.6-3.94S40,25.61,40.16,27.16Z"/><path class="cls-3" d="M186.42,47.61c-.19,1.56.08,3.81-1.66,3.84s-1.63-2.2-1.65-3.68-.18-3.92,1.6-3.94S186.2,46.2,186.42,47.61Z"/><path class="cls-3" d="M54.33,27.12c-.18,1.47.1,3.71-1.63,3.75S51.06,28.69,51,27.22s-.19-3.92,1.58-4S54.16,25.6,54.33,27.12Z"/><path class="cls-3" d="M172.26,47.47c-.2,1.61.15,4-1.72,4s-1.6-2.39-1.59-4-.11-3.69,1.66-3.66S172,46.1,172.26,47.47Z"/><path class="cls-3" d="M82.67,47.69c-.26,1.41.21,3.76-1.77,3.73-1.66,0-1.54-2.3-1.52-3.78s-.23-3.83,1.71-3.8C82.78,43.86,82.51,46.15,82.67,47.69Z"/><path class="cls-3" d="M11.83,47.57c-.18,1.5.16,3.89-1.71,3.86S8.52,49,8.54,47.48s-.11-3.7,1.65-3.67S11.66,46.08,11.83,47.57Z"/><path class="cls-3" d="M82.67,27.12c-.18,1.47.1,3.71-1.63,3.75s-1.64-2.18-1.66-3.65-.19-3.92,1.58-4S82.49,25.6,82.67,27.12Z"/><path class="cls-3" d="M125.17,47.55c-.17,1.52.16,3.9-1.7,3.87s-1.61-2.39-1.6-3.94-.11-3.7,1.65-3.67S125,46.08,125.17,47.55Z"/><path class="cls-3" d="M93.48,27.29c.16-1.67-.14-4,1.7-4s1.62,2.38,1.61,3.94.11,3.7-1.64,3.68S93.71,28.6,93.48,27.29Z"/><path class="cls-3" d="M26,47.5c-.14,1.56.15,3.94-1.67,3.94s-1.63-2.37-1.62-3.92-.12-3.71,1.62-3.71S25.83,46,26,47.5Z"/><path class="cls-3" d="M111,26.93c-.18,1.62.08,3.91-1.6,3.93-1.93,0-1.68-2.29-1.7-3.82s-.15-3.75,1.53-3.78C111.25,23.24,110.74,25.6,111,26.93Z"/><path class="cls-3" d="M96.83,47.5c-.14,1.56.15,3.94-1.67,3.94s-1.63-2.37-1.62-3.92-.12-3.71,1.62-3.71S96.66,46,96.83,47.5Z"/><path class="cls-3" d="M121.81,27.09c.18-1.58-.09-3.83,1.66-3.85s1.64,2.19,1.65,3.67.17,3.92-1.6,3.95S122,28.49,121.81,27.09Z"/><path class="cls-3" d="M40.18,47.53c-.18,1.6.08,3.9-1.62,3.9-1.91,0-1.67-2.31-1.69-3.84s-.14-3.75,1.55-3.76C40.41,43.82,39.92,46.18,40.18,47.53Z"/><path class="cls-3" d="M139.34,27c-.21,1.47.17,3.86-1.72,3.81s-1.6-2.4-1.57-4-.12-3.69,1.67-3.64S139.17,25.54,139.34,27Z"/><path class="cls-3" d="M148.93,27.15c-.18,1.45.1,3.7-1.64,3.73s-1.64-2.19-1.65-3.67-.18-3.92,1.59-3.95S148.77,25.61,148.93,27.15Z"/><path class="cls-3" d="M155.19,26.87c.19-1.4-.1-3.66,1.69-3.63s1.6,2.25,1.6,3.73.17,3.91-1.65,3.88S155.32,28.46,155.19,26.87Z"/><path class="cls-3" d="M153,47.63c-.17,1.5.09,3.79-1.61,3.79-1.9,0-1.67-2.31-1.69-3.84s-.14-3.76,1.55-3.76C153.25,43.82,152.85,46.16,153,47.63Z"/><path class="cls-3" d="M168.9,27c.17-1.48-.11-3.72,1.63-3.76s1.65,2.18,1.66,3.66.18,3.92-1.59,4S169.08,28.51,168.9,27Z"/><path class="cls-3" d="M54.35,47.47c-.18,1.63.09,3.92-1.59,3.95-1.9,0-1.72-2.26-1.72-3.8s-.15-3.75,1.52-3.79C54.59,43.79,54.06,46.16,54.35,47.47Z"/><path class="cls-3" d="M186.41,27c-.17,1.52.1,3.82-1.58,3.83-1.9,0-1.71-2.27-1.71-3.8s-.15-3.75,1.53-3.78C186.62,23.24,186.18,25.58,186.41,27Z"/><path class="cls-3" d="M111,47.48c-.18,1.63.09,3.92-1.59,3.94-1.9,0-1.71-2.27-1.71-3.8s-.15-3.75,1.53-3.78C111.26,43.8,110.73,46.16,111,47.48Z"/><path class="cls-3" d="M200.59,26.94c-.22,1.58.18,3.92-1.75,3.93-1.69,0-1.48-2.27-1.59-3.75a1.47,1.47,0,0,1,0-.23c.12-1.47-.1-3.69,1.69-3.64S200.37,25.55,200.59,26.94Z"/><path class="cls-3" d="M65.16,47.47c.18-1.43-.09-3.68,1.67-3.67s1.61,2.24,1.62,3.72.16,3.92-1.63,3.91S65.3,49,65.16,47.47Z"/><path class="cls-3" d="M214.29,27c-.19,1.5.16,3.88-1.71,3.85s-1.6-2.39-1.59-4-.11-3.69,1.66-3.66S214.12,25.52,214.29,27Z"/><path class="cls-3" d="M193.26,88.86c-.18,1.45.1,3.69-1.65,3.72S190,90.38,190,88.9s-.18-3.92,1.6-3.94S193.11,87.31,193.26,88.86Z"/><path class="cls-3" d="M202.87,88.7c-.17,1.53.1,3.82-1.58,3.85-1.9,0-1.72-2.26-1.72-3.8S199.42,85,201.09,85C203.08,84.93,202.62,87.28,202.87,88.7Z"/><path class="cls-3" d="M212.47,88.74c-.23,1.48.2,3.82-1.75,3.82-1.68,0-1.56-2.28-1.55-3.76S209,85,210.85,85C212.57,85,212.31,87.24,212.47,88.74Z"/></g></g></svg>
