<svg xmlns="http://www.w3.org/2000/svg" viewBox="0 0 253.04 103.56"><defs><style>.cls-1{fill:#fff;}</style></defs><title>24-7</title><g id="Слой_2" data-name="Слой 2"><g id="Слой_1-2" data-name="Слой 1"><path d="M57.63,84.24c0-4.8,0-9.34,0-13.87a4.8,4.8,0,0,1,.8-2Q75.8,36.24,93.13,4.07a3,3,0,0,1,3.15-1.84c3.43.13,6.86,0,10.58,0V69.19h8.53V84.13H107v17.21H92.13V84.24ZM91.87,34l-.55-.11-19,35.45c6.1,0,11.59-.09,17.07,0,2.09.05,2.74-.54,2.71-2.68C92,56.45,92,46.23,92,36,92,35.33,91.91,34.64,91.87,34Z"/><path d="M6.48,27.06C5.27,22.7,4,18.34,2.89,14a1.94,1.94,0,0,1,.41-1.65C12.16,5.12,21.73-.22,33.72,1.59,43.79,3.11,50.53,9.88,52.22,20c2.45,14.59-1.52,27.65-9.56,39.74A149.61,149.61,0,0,1,21.86,84.13a21.75,21.75,0,0,1-2.46,1.81l.49.78H54.61v14.64H0C0,96.66-.06,92,.09,87.3c0-.77,1-1.58,1.61-2.24,9.61-9.74,19-19.67,26.8-31,4.19-6.07,8.08-12.35,9.13-19.83a21.68,21.68,0,0,0-.22-7.81c-1.67-7.1-6.93-10.22-14.09-8.72a30.38,30.38,0,0,0-15,8.1,8.89,8.89,0,0,0-1.08,1.6Z"/><path d="M225.84,101.43h-17l25.87-84.3H200.33V1.45H253c-.24,5.5.63,11.37-.91,16.51C243.87,45.4,235,72.65,226.4,100,226.26,100.43,226.06,100.86,225.84,101.43Z"/><path d="M183.47,0c-.34,1.18-.53,1.93-.78,2.66Q165.23,52,147.79,101.33c-.56,1.58-1.22,2.29-3,2.23-4.06-.15-8.14,0-12.52,0,.27-1,.44-1.81.71-2.58Q150.42,51.62,167.84,2.3C168.47.53,169.26,0,171.05,0,175,.11,179,0,183.47,0Z"/><path class="cls-1" d="M91.87,34c0,.69.12,1.37.12,2.06,0,10.22,0,20.43.12,30.65,0,2.14-.62,2.73-2.71,2.68-5.49-.13-11,0-17.07,0l19-35.45Z"/></g></g></svg>
