<svg xmlns="http://www.w3.org/2000/svg" viewBox="0 0 449.54 538.81"><defs><style>.cls-1{fill:#211e1e;}.cls-2{fill:#fff;}</style></defs><title>bag_money</title><g id="Слой_2" data-name="Слой 2"><g id="Слой_1-2" data-name="Слой 1"><path d="M221.21,0h5.28a7.49,7.49,0,0,0,1.9.79Q247.8,3,267.21,5.21c2.71.3,3,.7,2,3.28-3.3,8.46-6.65,16.89-9.9,25.37-.79,2.06-1.29,4.23-1.92,6.34l.7.34c6-4.49,11.93-8.94,17.85-13.47,6.94-5.31,13.78-10.76,20.79-16a7,7,0,0,1,4.39-1.1c12.1.93,24.2,2,36.29,3.09,2.73.24,5.46.61,8.48,1-7.15,14.68-14.17,29-21.12,43.4S311,86,303.92,100.88h3.74c12.72,0,25.44,0,38.16,0,2.14,0,3,.62,3,2.86.17,8.55.52,17.11.81,25.66.12,3.63-.06,3.84-3.65,3.84H301.09c-.83,0-1.65.13-2.76.23.37.68.47,1.13.74,1.33,2.66,1.87,5.41,3.63,8,5.56,7.34,5.41,14.88,10.6,21.87,16.44a210.5,210.5,0,0,1,17.43,16.67c6.77,7.12,13.36,14.45,19.61,22,5.51,6.68,10.73,13.64,15.55,20.84,7.68,11.48,15.3,23,22.23,35a323.82,323.82,0,0,1,15.14,30c5.33,11.86,10.4,23.87,14.74,36.12,3.93,11.1,6.68,22.61,10,33.92a148.45,148.45,0,0,1,4.85,27.28c1,9.52,1.53,19.06.36,28.71a122,122,0,0,1-6.92,29.2,116,116,0,0,1-12.12,22.92,118.66,118.66,0,0,1-20,22.54,181.73,181.73,0,0,1-20.14,15.56,174.83,174.83,0,0,1-22.55,12.88c-8.7,4.08-17.92,7.05-26.86,10.64a169.3,169.3,0,0,1-29.8,8.55c-9.83,2-19.7,3.87-29.64,5.23-11.86,1.63-23.79,3.41-35.73,3.76-16.28.47-32.62.08-48.89-.76-11.86-.62-23.67-2.4-35.45-4-6.86-.92-13.67-2.34-20.44-3.8-5-1.07-9.88-2.48-14.77-3.93-7.63-2.26-15.38-4.25-22.78-7.12-8.89-3.45-17.51-7.63-26.18-11.64A141.92,141.92,0,0,1,50,490.78c-9.84-7.55-19-16-26.37-26.08a139.18,139.18,0,0,1-10.92-17c-2.78-5.23-4.54-11-6.77-16.53C2,421.3.77,410.83.17,400.32a135.45,135.45,0,0,1,2.46-31.95c1.44-7.91,2.65-15.91,4.86-23.62,3.52-12.32,7.44-24.55,11.83-36.58,3.67-10,7.92-19.89,12.55-29.52C37,268,42.42,257.59,48.37,247.45c6.83-11.64,13.87-23.23,21.75-34.16A416.41,416.41,0,0,1,96.6,180.51a269.71,269.71,0,0,1,24.46-24.12c8.6-7.49,17.65-14.55,27.66-20.2a17.8,17.8,0,0,0,2.6-2.19,5.41,5.41,0,0,0-2.93-.78q-16.8,0-33.6,0c-3.51,0-3.52,0-3.52-3.39,0-9,.09-18.08-.06-27.12,0-2.45.64-3.15,3.09-3.05,12.31.48,24.62.8,36.93,1.16.91,0,1.81-.09,3.3-.16L106.77,7.83c1.51,0,2.35,0,3.19,0,4.39.21,8.78.5,13.18.64q26.5.84,53,1.58a5.54,5.54,0,0,1,4.79,2.49c6.92,9.42,13.93,18.77,20.94,28.12,1.06,1.42,2.28,2.72,3.73,4.43,4.2-11.82,8.25-23.12,12.23-34.44C219.05,7.14,220.09,3.56,221.21,0ZM177.43,355.82c2.82.8,5.31,1.56,7.83,2.21,3.71,1,7.43,1.85,11.15,2.77,1,.25,1.78.48,1.39,1.92-1.12,4.07-2.07,8.19-3.13,12.27-.86,3.31-.71,3.55,2.73,4.27,1.17.24,2.31.65,3.48.89,3.53.74,3.74.52,4.52-3.13s1.7-7.12,2.55-10.69c.4-1.68,1.23-2.44,3.07-1.77s3.5,1,5.48,1.58c-.21,1-.38,1.92-.6,2.82q-1.49,6-3,12.07c-.29,1.16-.2,1.95,1.26,2.26a58.54,58.54,0,0,1,6.67,1.82c1.7.58,2.34-.14,2.7-1.63,1-4.18,2.14-8.34,3-12.55.36-1.8,1.14-2.15,2.77-2,4.06.37,8.13.84,12.19.8a29.33,29.33,0,0,0,8.94-1.28c8.35-2.79,12.06-9.49,14.17-17.53,1.71-6.52.43-12.18-4.15-17A50.13,50.13,0,0,0,255,329.6a4,4,0,0,1,.84-.61,16.24,16.24,0,0,0,10.59-11.14c2.27-7.17,1.1-13.48-4.44-18.85-3.52-3.42-7.83-5.42-12.24-7.29-3.3-1.4-3.25-1.57-2.2-5.13s1.92-7.41,2.85-11.12c.31-1.26.11-2.13-1.45-2.41a53,53,0,0,1-6.73-1.62c-1.46-.47-2.05-.11-2.38,1.3-.79,3.41-1.69,6.8-2.47,10.22-1,4.3-.95,4.31-5.33,3.43-.63-.13-1.25-.27-1.88-.36-1.5-.23-2-.91-1.53-2.5,1.14-4.24,2-8.54,3.15-12.78.36-1.35,0-2-1.25-2.28-2.16-.55-4.34-1-6.48-1.67-1.84-.53-2.52.15-2.92,2-1,4.72-2.32,9.39-3.6,14.5l-20.68-5.14c-.81,3-1.56,5.93-2.39,8.82-.54,1.86.26,2.64,2,3a42.36,42.36,0,0,1,4.87,1.22c4.41,1.41,5.53,3.54,4.43,8-2.58,10.36-5.11,20.74-7.68,31.1-1,4.1-2,8.21-3.13,12.27-.87,3.13-2.85,4.12-5.82,3.21-1.52-.47-3.07-.84-4.6-1.28a1.86,1.86,0,0,0-2.64,1.2C180.54,348.91,179,352.16,177.43,355.82Z"/><circle class="cls-1" cx="220.28" cy="320.92" r="123"/><path class="cls-2" d="M177.43,355.82c1.61-3.66,3.11-6.91,4.47-10.22a1.86,1.86,0,0,1,2.64-1.2c1.53.44,3.08.81,4.6,1.28,3,.92,5-.08,5.82-3.21,1.13-4.07,2.12-8.18,3.13-12.27,2.57-10.37,5.11-20.74,7.68-31.1,1.1-4.44,0-6.57-4.43-8a42.36,42.36,0,0,0-4.87-1.22c-1.74-.34-2.54-1.12-2-3,.83-2.89,1.58-5.8,2.39-8.82l20.68,5.14c1.28-5.1,2.55-9.78,3.6-14.5.4-1.81,1.09-2.49,2.92-2,2.14.62,4.32,1.12,6.48,1.67,1.24.31,1.61.93,1.25,2.28-1.12,4.24-2,8.55-3.15,12.78-.43,1.59,0,2.26,1.53,2.5.63.1,1.26.24,1.88.36,4.38.88,4.35.87,5.33-3.43.78-3.42,1.68-6.8,2.47-10.22.33-1.41.91-1.77,2.38-1.3A53,53,0,0,0,249,273c1.55.28,1.76,1.15,1.45,2.41-.93,3.71-1.77,7.45-2.85,11.12s-1.1,3.73,2.2,5.13c4.42,1.87,8.72,3.87,12.24,7.29,5.54,5.37,6.71,11.68,4.44,18.85A16.24,16.24,0,0,1,255.88,329a4,4,0,0,0-.84.61,50.13,50.13,0,0,1,5.37,4.33c4.59,4.83,5.86,10.49,4.15,17-2.11,8-5.82,14.75-14.17,17.53a29.33,29.33,0,0,1-8.94,1.28c-4.06,0-8.13-.43-12.19-.8-1.64-.15-2.42.19-2.77,2-.84,4.21-2,8.37-3,12.55-.36,1.49-1,2.21-2.7,1.63a58.54,58.54,0,0,0-6.67-1.82c-1.46-.31-1.55-1.1-1.26-2.26q1.52-6,3-12.07c.22-.9.39-1.82.6-2.82-2-.56-3.77-1-5.48-1.58s-2.67.09-3.07,1.77c-.85,3.56-1.78,7.11-2.55,10.69s-1,3.87-4.52,3.13c-1.17-.24-2.31-.65-3.48-.89-3.44-.71-3.59-1-2.73-4.27,1.06-4.09,2-8.2,3.13-12.27.39-1.43-.39-1.67-1.39-1.92-3.72-.92-7.44-1.81-11.15-2.77C182.74,357.38,180.25,356.62,177.43,355.82Zm52.83-.6.09-.54a18.7,18.7,0,0,0,3.35,0c3.22-.6,6.44-1.28,8.4-4.37,3.06-4.82,1.75-10.56-3.24-14-5.94-4-12.84-5.42-19.65-7-1.34-.32-1.87.28-2.12,1.53-.31,1.56-.79,3.08-1.16,4.63q-1.69,7-3.35,14c-.29,1.22-.21,2.23,1.32,2.53Q222.08,353.55,230.26,355.22Zm-10-37c6.07,1.92,12,3.23,18.36,2.52a8.81,8.81,0,0,0,8.08-6.69c1.08-3.55-.16-7.2-3.56-9.67-5.26-3.83-11.49-5.08-17.88-6.55Z"/><path d="M230.26,355.22q-8.18-1.65-16.37-3.29c-1.53-.3-1.61-1.31-1.32-2.53q1.67-7,3.35-14c.37-1.55.86-3.07,1.16-4.63.25-1.25.78-1.84,2.12-1.53,6.81,1.61,13.71,3,19.65,7,5,3.4,6.3,9.14,3.24,14-2,3.08-5.18,3.77-8.4,4.37a18.7,18.7,0,0,1-3.35,0Z"/><path d="M220.28,318.21l5-20.39c6.39,1.47,12.62,2.72,17.88,6.55,3.4,2.47,4.64,6.12,3.56,9.67a8.81,8.81,0,0,1-8.08,6.69C232.32,321.44,226.34,320.12,220.28,318.21Z"/></g></g></svg>
