<svg xmlns="http://www.w3.org/2000/svg" viewBox="0 0 340.88 250.2"><defs><style>.cls-1{fill:#fff;}</style></defs><title>comp2</title><g id="Слой_2" data-name="Слой 2"><g id="Слой_1-2" data-name="Слой 1"><path d="M200.51,207.2c0,8.1,0,15.78.06,23.45a3.43,3.43,0,0,0,1.24,2.11c5.1,4.5,10.28,8.89,15.35,13.42.77.69,1,1.95,1.51,2.94a9.5,9.5,0,0,1-2.92,1q-45.23.08-90.47,0a10,10,0,0,1-2.95-1,11.25,11.25,0,0,1,1.67-2.81c5.14-4.69,10.39-9.26,15.55-13.92a3.16,3.16,0,0,0,1.09-2c.05-7.52,0-15,0-22.55,0-.14-.12-.29-.32-.71H6.37C1.23,207.2,0,206,0,200.85Q0,103.54,0,6.24C0,1.66,1.64,0,6.17,0H334.45c4.78,0,6.43,1.67,6.43,6.52q0,97.19,0,194.38c0,4.91-1.37,6.3-6.23,6.3H200.51ZM328.09,15.11H12.86V191.55H328.09Z"/><path class="cls-1" d="M328.09,15.11V191.55H12.86V15.11ZM205.95,56.21h91.37l.64,2.22,12.31-10.76a15.09,15.09,0,0,0-13.13-7q-45.35-.17-90.7,0c-9.23,0-16.05,7-16.07,16.22q-.08,45,0,90A15.78,15.78,0,0,0,206.53,163q45.23.11,90.46,0c9.26,0,15.86-6.77,15.88-16q.05-26.51,0-53c0-.65-.11-1.31-.21-2.36-4.67,4.09-8.95,7.92-13.33,11.63a4.55,4.55,0,0,0-1.76,3.89c.07,12.48,0,25,0,37.43,0,.93-.08,1.86-.12,2.81H205.95Zm102.74,2L251.82,108,232,85.52,216.39,99.18l33.73,38.26L322.59,74ZM99.79,176.45c38.7.65,72.48-33.17,71.16-74-1.2-37.21-32.46-70.34-73.53-69.48a72,72,0,0,0-70.21,74C28.18,145,60.33,177.54,99.79,176.45Z"/><path d="M205.95,56.21v91.23h91.54c0-1,.12-1.88.12-2.81,0-12.48,0-25,0-37.43a4.55,4.55,0,0,1,1.76-3.89c4.38-3.71,8.67-7.54,13.33-11.63.1,1,.21,1.7.21,2.36q0,26.51,0,53c0,9.19-6.62,15.94-15.88,16q-45.23.11-90.46,0a15.78,15.78,0,0,1-16.14-16.14q-.09-45,0-90c0-9.24,6.84-16.19,16.07-16.22q45.35-.12,90.7,0a15.09,15.09,0,0,1,13.13,7L298,58.44l-.64-2.22Z"/><path d="M308.69,58.19,322.59,74l-72.47,63.48L216.39,99.18,232,85.52,251.82,108Z"/><path d="M99.79,176.45C60.33,177.54,28.18,145,27.21,107a72,72,0,0,1,70.21-74c41.07-.86,72.33,32.28,73.53,69.48C172.27,143.28,138.5,177.09,99.79,176.45Zm65.73-71.56c.55-36.38-29.92-66.78-66.68-66.62-36.3.16-66.12,29.84-66.26,66.08a66.47,66.47,0,1,0,132.94.54Z"/><path class="cls-1" d="M165.53,104.88a66.47,66.47,0,1,1-132.94-.54c.14-36.25,30-65.93,66.26-66.08C135.6,38.1,166.08,68.5,165.53,104.88ZM121.29,90.65c-.09.9-.2,1.52-.2,2.14,0,15.65,0,31.3-.06,46.95,0,1.84.72,2.41,2.41,2.3a32,32,0,0,1,4.07,0c2,.14,2.79-.61,2.76-2.75-.1-9.26,0-18.52,0-27.78,0-6.15-.07-12.3,0-18.44,0-1.91-.61-2.56-2.48-2.45C125.72,90.75,123.65,90.65,121.29,90.65ZM65,147c0,1.4.09,2.65,0,3.9-.15,1.66.46,2.22,2.16,2.22,21.36,0,42.72,0,64.08,0,.59,0,1.68-.24,1.7-.46a18.38,18.38,0,0,0,0-5c-.07-.4-1.72-.74-2.65-.74q-31.32-.06-62.64,0C66.94,146.88,66.16,147,65,147ZM117,119.79q0-8,0-16.06c0-6.28,0-6.2-6.38-6.25-2.2,0-2.86.66-2.84,2.88.1,11.75,0,23.5,0,35.25,0,6.58,0,6.52,6.59,6.47,1.94,0,2.66-.58,2.63-2.61C116.89,132.9,117,126.34,117,119.79Zm12.37-63.33L115.21,69.35l.25.48,5.37-.42C110.2,91,91.36,100.42,70.43,107c23.42-4.35,44.07-13.22,56.77-35.39l3.8,4.29.46-.27Zm-25.54,66h0c0-5.76,0-11.51,0-17.27,0-1.46-.49-2.06-1.91-2a45.89,45.89,0,0,1-4.79,0c-2.14-.18-2.69.7-2.67,2.77.1,9.84,0,19.67.08,29.51.1,7.5-1.67,6.44,6.78,6.58,2,0,2.57-.82,2.53-2.75C103.72,133.7,103.79,128.1,103.79,122.5ZM90.34,110.31c-2.33,0-4.54.11-6.74,0-1.8-.12-2.33.52-2.31,2.3.08,7.66,0,15.32,0,23,0,6.74,0,6.69,6.8,6.51,1.83,0,2.46-.62,2.44-2.54-.1-8.93,0-17.87-.06-26.81C90.5,112,90.41,111.32,90.34,110.31ZM77.2,129.72q0-2.87,0-5.74c0-7.08,0-7-7.06-6.89-1.65,0-2.21.52-2.18,2.21.1,5.34,0,10.68,0,16,0,7.05,0,7.05,7,6.72h.24c1.41,0,2-.61,2-2C77.16,136.57,77.2,133.14,77.2,129.72Z"/><path d="M121.29,90.65c2.36,0,4.43.1,6.49,0,1.87-.12,2.51.54,2.48,2.45-.1,6.15,0,12.3,0,18.44,0,9.26-.07,18.52,0,27.78,0,2.14-.73,2.88-2.76,2.75a32,32,0,0,0-4.07,0c-1.69.1-2.42-.46-2.41-2.3.06-15.65,0-31.3.06-46.95C121.09,92.17,121.2,91.55,121.29,90.65Z"/><path d="M65,147c1.11-.05,1.89-.13,2.67-.13q31.32,0,62.64,0c.92,0,2.58.35,2.65.74a18.38,18.38,0,0,1,0,5c0,.22-1.11.46-1.7.46-21.36,0-42.72,0-64.08,0-1.7,0-2.31-.56-2.16-2.22C65.13,149.66,65,148.4,65,147Z"/><path d="M117,119.79c0,6.55-.07,13.11,0,19.66,0,2-.69,2.6-2.63,2.61-6.59.05-6.59.11-6.59-6.47,0-11.75.06-23.5,0-35.25,0-2.22.63-2.9,2.84-2.88,6.38.05,6.38,0,6.38,6.25Q117,111.76,117,119.79Z"/><path d="M129.32,56.46l2.14,19.22-.46.27-3.8-4.29c-12.7,22.16-33.35,31-56.77,35.39,20.93-6.61,39.76-16,50.4-37.62l-5.37.42-.25-.48Z"/><path d="M103.79,122.5c0,5.6-.07,11.2,0,16.79,0,1.92-.49,2.78-2.53,2.75-8.45-.14-6.68.92-6.78-6.58-.13-9.83,0-19.67-.08-29.51,0-2.07.53-3,2.67-2.77a45.89,45.89,0,0,0,4.79,0c1.42,0,1.93.57,1.91,2-.07,5.76,0,11.51,0,17.27Z"/><path d="M90.34,110.31c.07,1,.15,1.71.16,2.41,0,8.94,0,17.87.06,26.81,0,1.91-.6,2.49-2.44,2.54-6.8.18-6.8.23-6.8-6.51,0-7.66.05-15.32,0-23,0-1.78.51-2.42,2.31-2.3C85.8,110.42,88,110.31,90.34,110.31Z"/><path d="M77.2,129.72c0,3.43,0,6.86,0,10.29,0,1.42-.54,2.09-2,2H75c-7,.33-7,.33-7-6.72,0-5.34.06-10.69,0-16,0-1.69.53-2.17,2.18-2.21,7.06-.14,7.06-.19,7.06,6.89Q77.2,126.84,77.2,129.72Z"/></g></g></svg>
