<svg xmlns="http://www.w3.org/2000/svg" viewBox="0 0 626.36 459.37"><defs><style>.cls-1{fill:#7f7f7f;}.cls-2{fill:#fdfdfd;}.cls-3{fill:#262626;}.cls-4{fill:#828385;}.cls-5{fill:#2e302f;}.cls-6{fill:#343635;}.cls-7{fill:#030708;}.cls-8{fill:#020202;}.cls-9{fill:#010101;}.cls-10{fill:#050505;}.cls-11{fill:#030303;}.cls-12{fill:#060606;}.cls-13{fill:#070707;}.cls-14{fill:#040404;}.cls-15{fill:#090909;}.cls-16{fill:#0b0b0b;}.cls-17{fill:#0e0e0e;}.cls-18{fill:#fefefd;}.cls-19{fill:#666;}.cls-20{fill:#fefefe;}.cls-21{fill:#010100;}.cls-22{fill:#a2a3a1;}</style></defs><title>comp1</title><g id="Слой_2" data-name="Слой 2"><g id="Слой_1-2" data-name="Слой 1"><path d="M389.46,443.64q5.56,4.79,11.12,9.57a3.56,3.56,0,0,1,1.24,4.27c-.65,1.59-2.1,1.88-3.76,1.88q-84.84,0-169.68,0c-1.82,0-3.2-.52-3.79-2.23s.61-2.6,1.85-3.68c6.87-6,13.61-12.12,20.4-18.2,3.48-3.11,6.93-6.26,10.48-9.28a2.88,2.88,0,0,0,1.13-2.45c0-13.76,0-27.52,0-41.28,0-1.92-.9-2-2.34-2q-27,0-54,0-96.6,0-193.2,0c-3.8,0-6.54-1.46-8.29-4.84a8.23,8.23,0,0,1-.58-4q0-32.28,0-64.56Q.07,158.26,0,9.59A9.65,9.65,0,0,1,9.54,0q303.48.17,607,0a10.15,10.15,0,0,1,9.87,9.9q-.17,180.72,0,361.43a9.17,9.17,0,0,1-9.37,9q-122.64-.15-245.28-.07c-3.3,0-3.3,0-3.3,3.31,0,13.2,0,26.4,0,39.6a4.31,4.31,0,0,0,1.67,3.64c5.56,4.74,11.08,9.53,16.61,14.31C387.64,441.93,388.45,442.9,389.46,443.64Z"/><path class="cls-1" d="M389.46,443.64a5,5,0,0,1-2.81-2.47A4.59,4.59,0,0,1,389.46,443.64Z"/><path class="cls-2" d="M313.11,351.91q-143.39,0-286.78.06c-2.51,0-3-.71-3-3q.08-159.35,0-318.7c0-2.4.79-2.86,3-2.86q286.78.07,573.57,0c2.34,0,3.13.44,3.13,3q-.1,159.11-.06,318.22c0,4.16.09,3.33-3.31,3.33Q456.38,351.92,313.11,351.91Z"/><path d="M179.14,269.85a56.53,56.53,0,1,1,56.21,56.74A56.62,56.62,0,0,1,179.14,269.85Z"/><path class="cls-3" d="M530.7,235.61c-5-5.23-9.79-9.83-16.07-12.38a22.49,22.49,0,0,0-6.06-1.82c0,8.24,0,16.39,0,24.54,0,3.36.08,6.72,0,10.08a2,2,0,0,0,1.7,2.32A48,48,0,0,1,527.15,267c11.06,9.2,13.66,24.86,6.57,38.59-4.85,9.38-12.59,15.1-22.52,18-2.18.64-2.85,1.62-2.69,3.81.21,2.86,0,5.76.08,8.63,0,1.23-.29,1.67-1.59,1.64-3.6-.09-7.2-.1-10.8,0-1.46,0-1.7-.54-1.66-1.81.08-2.56,0-5.12.05-7.68.05-1.31-.34-1.72-1.67-1.88a59.82,59.82,0,0,1-25.56-9.53,3.15,3.15,0,0,1-1.66-3.07c.08-6.38,0-12.77,0-19.68l3.79,3.32c6.5,5.73,13.64,10.26,22.26,12.08,2.77.58,2.77.6,2.77-2.2,0-11.52,0-23,0-34.55,0-1.7-.51-2.31-2.09-2.73a41.09,41.09,0,0,1-17.17-8.62c-12.62-11.12-13-32.82-.83-45.51a36.53,36.53,0,0,1,17.84-10.22c1.92-.48,2.36-1.28,2.25-3.06-.15-2.55,0-5.12-.06-7.67,0-1.14.32-1.52,1.48-1.49,3.68.07,7.36.09,11,0,1.38,0,1.56.54,1.53,1.69-.07,2.56.06,5.12-.05,7.68-.07,1.51.23,2.17,1.94,2.45A44,44,0,0,1,529.33,213a2.54,2.54,0,0,1,1.4,2.26C530.67,221.83,530.7,228.38,530.7,235.61Z"/><path class="cls-4" d="M318.35,130.53c3.68-7,8-13.62,12.09-20.39Q349.14,79,368,48c.26-.43.61-3,1.85-.45a68.94,68.94,0,0,1,.25,8.59q0,23.56,0,47.12a17,17,0,0,1-.22,4,3.35,3.35,0,0,1-2.22,2c-15.17,6.73-30.27,13.62-45.37,20.5C321.11,130.35,319.88,131.54,318.35,130.53Z"/><path class="cls-5" d="M369.2,108q0-28.9.09-57.79c0-.88-.5-1.94.57-2.62Q385.07,72.76,400.29,98q9.53,15.78,19.07,31.54a10.21,10.21,0,0,1,.49,1.07c-1.16.92-2.15,0-3.1-.4-5.48-2.2-10.79-4.79-16.15-7.26-8.7-4-17.49-7.8-26.21-11.76-1.67-.76-3.28-1.64-4.87-2.55A1.27,1.27,0,0,1,369.2,108Z"/><path class="cls-6" d="M318.35,130.53c3.63-.76,6.76-2.74,10.08-4.21C342,120.26,355.61,114.09,369.2,108l.2.2a6.22,6.22,0,0,1,.71,3.46q0,23.33,0,46.65a10,10,0,0,1-.33,2.6c-1,.92-1.81-.05-2.54-.48q-24.33-14.34-48.64-28.71C317.93,131.28,317.72,131.07,318.35,130.53Z"/><path class="cls-7" d="M369.78,160.87a1.41,1.41,0,0,1-.46-1.29q0-25.71.08-51.43c5.42,2.46,10.83,4.93,16.25,7.37q16.52,7.43,33,14.83a5.29,5.29,0,0,0,1.15.23c.54.93-.37,1-.81,1.25q-19.24,11.42-38.5,22.8C377,156.75,373.37,158.8,369.78,160.87Z"/><path class="cls-4" d="M369.76,211.73c-.68,1.55-1.09.43-1.52-.17-3.74-5.19-7.49-10.36-11.2-15.57q-14.82-20.77-29.61-41.57c-3.05-4.29-6.09-8.59-9.17-13,1-.24,1.56.47,2.18.83,13.29,7.82,26.52,15.74,39.84,23.51,3,1.73,5.75,3.75,8.95,5.06,1,.83.87,2,.87,3.1,0,11.56,0,23.12,0,34.68C370.12,209.7,369.78,210.69,369.76,211.73Z"/><path class="cls-5" d="M369.76,211.73c-.92-.75-.48-1.78-.48-2.67q-.07-19.09-.06-38.18l50.22-29.57.35.37Z"/><path d="M156.82,60.84c0,4.32-2.88,7-7.34,7a6.72,6.72,0,0,1-7-7.15,7.24,7.24,0,0,1,7.27-7.29A7,7,0,0,1,156.82,60.84Z"/><path d="M64.56,112.27c4.48,0,7.23,2.65,7.23,7a7.05,7.05,0,0,1-7.15,7.29,7.56,7.56,0,0,1-7.3-7.1A7,7,0,0,1,64.56,112.27Z"/><path d="M157.85,170.63a6.75,6.75,0,0,1-7.13-7,7.16,7.16,0,1,1,14.31-.16C165.06,167.79,162.19,170.64,157.85,170.63Z"/><path class="cls-8" d="M168.1,88.4A5.85,5.85,0,0,1,162,82.46,6.3,6.3,0,0,1,168,76c3.12,0,6.36,3.25,6.32,6.35A6.35,6.35,0,0,1,168.1,88.4Z"/><path class="cls-9" d="M136.14,168.64a5.75,5.75,0,0,1-6.11,6.17c-3.73,0-6.1-2.43-6.08-6.19a6.1,6.1,0,1,1,12.19,0Z"/><path class="cls-9" d="M157.75,80a5.85,5.85,0,0,1-6.09,6.18,6,6,0,0,1-6.08-6,5.9,5.9,0,0,1,6.08-6.22C155.45,73.93,157.75,76.22,157.75,80Z"/><path class="cls-9" d="M146.21,155.64a5.93,5.93,0,0,1-6.12,6.23,6.12,6.12,0,0,1-6.1-6.09,6.48,6.48,0,0,1,6.2-6.34A6.29,6.29,0,0,1,146.21,155.64Z"/><path class="cls-9" d="M68.24,92.69c0-3.75,2.41-6.26,6-6.22a6,6,0,0,1,6,6.1,6.29,6.29,0,0,1-6.15,6.31A6,6,0,0,1,68.24,92.69Z"/><path d="M80.3,114c-3.61,0-5.93-2.55-5.86-6.34a5.61,5.61,0,0,1,6.06-5.86A6.1,6.1,0,0,1,80.3,114Z"/><path class="cls-8" d="M89.39,91.41a5.3,5.3,0,0,1,0-10.59,5.29,5.29,0,1,1,0,10.59Z"/><path class="cls-9" d="M100.82,101.55a5.19,5.19,0,0,1-5.47,5.1c-3.11-.13-5-2.25-4.92-5.53a5,5,0,0,1,5.48-5A5.36,5.36,0,0,1,100.82,101.55Z"/><path class="cls-9" d="M117,153.63a5.13,5.13,0,1,1-5.39,5.07C111.61,155.59,113.74,153.59,117,153.63Z"/><path class="cls-9" d="M106,162.31a5.27,5.27,0,0,1-.17,10.53,5.34,5.34,0,0,1-5.11-5.23A5.2,5.2,0,0,1,106,162.31Z"/><path class="cls-9" d="M149.73,101.6a5,5,0,0,1-5.26-5.22,5.09,5.09,0,0,1,5.4-5.12,5.56,5.56,0,0,1,5.29,5.15A5.39,5.39,0,0,1,149.73,101.6Z"/><path class="cls-8" d="M87.21,67.16a4.89,4.89,0,0,1,5.18,5.3,5.56,5.56,0,0,1-5.19,5.27A5.43,5.43,0,0,1,82,72.46,4.9,4.9,0,0,1,87.21,67.16Z"/><path class="cls-9" d="M171.2,98.8a5.19,5.19,0,0,1-5.19,5.14,5.54,5.54,0,0,1-5.27-5.17,5.18,5.18,0,0,1,5.31-5.26A4.87,4.87,0,0,1,171.2,98.8Z"/><path class="cls-9" d="M132.15,145.77a5.19,5.19,0,1,1-10.39,0,5.19,5.19,0,0,1,10.39,0Z"/><path class="cls-9" d="M184.25,103.67a4.87,4.87,0,0,1-5.27,5.14,5.16,5.16,0,0,1-5.17-5.13A5.4,5.4,0,0,1,179,98.46,5,5,0,0,1,184.25,103.67Z"/><path class="cls-10" d="M122.53,135.11a4.66,4.66,0,0,1-4.63,4.53,4.61,4.61,0,0,1-4.45-4.69,4.5,4.5,0,0,1,4.72-4.38A4.64,4.64,0,0,1,122.53,135.11Z"/><path class="cls-8" d="M101.49,156.76A4.42,4.42,0,0,1,97,161.35a4.61,4.61,0,0,1-4.67-4.43,4.56,4.56,0,0,1,9.11-.16Z"/><path class="cls-8" d="M112.13,148.29a4.34,4.34,0,0,1-4.4,4.35,4.56,4.56,0,0,1-4.35-4.72,4.38,4.38,0,1,1,8.75.37Z"/><path class="cls-8" d="M145,114a4.39,4.39,0,0,1-4.53-4.51,4.53,4.53,0,0,1,4.5-4.35,4.43,4.43,0,0,1,4.5,4.33A4.22,4.22,0,0,1,145,114Z"/><path class="cls-8" d="M169.86,116.76a4.43,4.43,0,1,1,4.41,4.62A4.31,4.31,0,0,1,169.86,116.76Z"/><path class="cls-8" d="M113.83,99.11a4.48,4.48,0,1,1-4.37-4.67A4.44,4.44,0,0,1,113.83,99.11Z"/><path class="cls-8" d="M107.63,83.76a4.17,4.17,0,0,1-4.42,4.3,4.32,4.32,0,0,1-4.56-4.45,4.52,4.52,0,0,1,4.73-4.35A4.31,4.31,0,0,1,107.63,83.76Z"/><path class="cls-9" d="M161.37,107.42a4.45,4.45,0,0,1-.11,8.89,4.43,4.43,0,0,1-4.55-4.51A4.33,4.33,0,0,1,161.37,107.42Z"/><path class="cls-9" d="M96.64,69.91a4.38,4.38,0,1,1,4.48,4.47A4.23,4.23,0,0,1,96.64,69.91Z"/><path class="cls-8" d="M116.38,124.55a3.82,3.82,0,1,1-7.64-.27,3.82,3.82,0,1,1,7.64.27Z"/><path class="cls-11" d="M154.77,125.84a3.82,3.82,0,0,1-3.85-4,3.66,3.66,0,0,1,3.86-3.69,3.72,3.72,0,0,1,3.76,3.83A3.87,3.87,0,0,1,154.77,125.84Z"/><path class="cls-8" d="M112.83,66.77a3.58,3.58,0,0,1,4,3.73,3.79,3.79,0,0,1-4,3.86,3.75,3.75,0,0,1-3.7-3.85A3.54,3.54,0,0,1,112.83,66.77Z"/><path class="cls-11" d="M125.07,99.57a3.65,3.65,0,0,1-3.8,3.73,3.74,3.74,0,0,1-3.85-3.75,4,4,0,0,1,4-3.91A3.81,3.81,0,0,1,125.07,99.57Z"/><path class="cls-11" d="M171.58,126.82a4,4,0,0,1-3.64,4,4.12,4.12,0,0,1-4-3.69,3.92,3.92,0,0,1,3.71-4.08A3.66,3.66,0,0,1,171.58,126.82Z"/><path class="cls-8" d="M115,88a3.59,3.59,0,0,1-3.76-3.76,3.79,3.79,0,0,1,4.08-3.78,3.54,3.54,0,0,1,3.53,4A3.45,3.45,0,0,1,115,88Z"/><path class="cls-8" d="M102.41,133.58a3.84,3.84,0,0,1,3.77,3.85,3.71,3.71,0,0,1-3.78,3.8,3.82,3.82,0,1,1,0-7.65Z"/><path class="cls-11" d="M138.48,115.74a3.82,3.82,0,1,1-.07,7.63,3.83,3.83,0,0,1-3.74-3.86A3.71,3.71,0,0,1,138.48,115.74Z"/><path class="cls-11" d="M95.38,146.21a3.76,3.76,0,0,1-7.53,0,3.7,3.7,0,0,1,3.6-3.94A3.87,3.87,0,0,1,95.38,146.21Z"/><path class="cls-10" d="M131.15,105.68a3.3,3.3,0,0,1-.18-6.59,3.3,3.3,0,1,1,.18,6.59Z"/><path class="cls-12" d="M92.31,136.45A3.27,3.27,0,0,1,89,139.76a3.57,3.57,0,0,1-3.28-3.48,3.44,3.44,0,0,1,3.53-3.17A3.29,3.29,0,0,1,92.31,136.45Z"/><path class="cls-12" d="M128.27,87.16a3.52,3.52,0,0,1-3.53,3.21,3.28,3.28,0,0,1,.15-6.55A3.42,3.42,0,0,1,128.27,87.16Z"/><path class="cls-11" d="M163.85,133.87a3.1,3.1,0,0,1-3.37,3.14,2.94,2.94,0,0,1-3.25-3,3.21,3.21,0,0,1,3.23-3.36A3.25,3.25,0,0,1,163.85,133.87Z"/><path class="cls-13" d="M131.13,123.41a3.38,3.38,0,0,1,3.42,3.26,3.29,3.29,0,0,1-3.48,3.17,3,3,0,0,1-3.11-3A3.3,3.3,0,0,1,131.13,123.41Z"/><path class="cls-14" d="M96.66,127.6a3.29,3.29,0,0,1,3.35-3.28,3.33,3.33,0,0,1,3.28,3.16c.16,1.6-1.64,3.4-3.27,3.45A3.52,3.52,0,0,1,96.66,127.6Z"/><path class="cls-10" d="M150.65,128.86a3.17,3.17,0,0,1-3.16,3.42,3.24,3.24,0,0,1-3.3-3.31,3,3,0,0,1,3.31-3.18A2.89,2.89,0,0,1,150.65,128.86Z"/><path class="cls-13" d="M119.29,73.2a3.6,3.6,0,0,1,3.53-3.2,3.42,3.42,0,0,1,3.09,3.36,3.31,3.31,0,1,1-6.62-.16Z"/><path class="cls-13" d="M113.14,114.69a3.56,3.56,0,0,1-3,3.37,3.89,3.89,0,0,1-3.36-3.7,3.4,3.4,0,0,1,3.43-3A3,3,0,0,1,113.14,114.69Z"/><path class="cls-10" d="M152.87,135.48c2,0,3.1,1,3.15,2.75a2.61,2.61,0,0,1-2.75,2.93,2.54,2.54,0,0,1-2.88-2.73A2.59,2.59,0,0,1,152.87,135.48Z"/><path class="cls-15" d="M132,88.41c2.16,0,3.2.94,3.3,2.74a2.58,2.58,0,0,1-2.77,2.92,2.44,2.44,0,0,1-2.77-2.6C129.67,89.68,130.44,88.59,132,88.41Z"/><path class="cls-10" d="M99.62,116.09c1.83.08,2.88,1,3,2.78s-1,2.76-2.78,2.79a2.37,2.37,0,0,1-2.73-2.57C97,117.32,97.82,116.24,99.62,116.09Z"/><path class="cls-12" d="M130.22,80.28a2.61,2.61,0,0,1-2.72-2.78c0-1.74.93-2.94,2.75-2.9s2.66,1.19,2.6,3A2.52,2.52,0,0,1,130.22,80.28Z"/><path class="cls-15" d="M142.89,133.55c-.14,1.75-1.15,2.48-2.85,2.48a2.43,2.43,0,0,1-2.73-2.84,2.54,2.54,0,0,1,2.83-2.61C142,130.64,142.84,131.73,142.89,133.55Z"/><path class="cls-11" d="M91.66,127.87c-.18,1.69-1.11,2.65-2.81,2.55s-2.88-1-2.76-2.88,1.41-2.47,3-2.45S91.59,126.19,91.66,127.87Z"/><path class="cls-16" d="M138,82.25c-.07,1.5-.76,2.57-2.27,2.59a2.32,2.32,0,0,1-2.48-2.6A2.11,2.11,0,0,1,135.56,80,2.15,2.15,0,0,1,138,82.25Z"/><path class="cls-17" d="M148.65,140.48a2.29,2.29,0,0,1-2.44,2.49,2.18,2.18,0,0,1-2.46-2.31,2.28,2.28,0,0,1,2.4-2.42A2.35,2.35,0,0,1,148.65,140.48Z"/><path class="cls-13" d="M92.84,120.63c-.24,1.31-1,2.27-2.3,2.32a2.22,2.22,0,0,1-2.44-2.35,2.18,2.18,0,0,1,2.22-2.31C91.85,118.2,92.53,119.27,92.84,120.63Z"/><path class="cls-18" d="M250.28,239.6c-.74,2.1-.76,4.4-1.73,6.45-.38.82,0,1.18.8,1.61,1.74,1,3.65,1.51,5.37,2.56,3.89,2.4,6.39,5.58,6.15,10.29-.25,4.88-2.31,8.69-7.38,10.43a33.83,33.83,0,0,1,3.68,3.15,10,10,0,0,1,2.11,9.41c-1.78,7.07-5.15,11.88-14.07,11.87a28.73,28.73,0,0,1-6.69-.45c-1.67-.4-2.32.24-2.58,1.82a43.8,43.8,0,0,1-1.71,6.92c-.29.88-.4,1.27-1.55,1-5.29-1.11-5.3-1-4-6.17.22-.85.46-1.7.66-2.56.66-2.86-.16-3.74-3.16-3.71-1,0-1,.63-1.12,1.18-.59,2.23-1.2,4.46-1.67,6.71-.31,1.51-.75,2.14-2.53,1.64-4.46-1.25-4.49-1.15-3.39-5.77.17-.7.23-1.43.41-2.12,1.06-3.89,1.07-3.93-3-4.77a67.24,67.24,0,0,1-8.34-2.19c.38-1.08.71-2.14,1.12-3.18,1.61-4.12,1.64-4.21,5.87-3.08,2,.53,3-.36,3.45-1.92,2.21-8.55,4.36-17.12,6.37-25.71.85-3.62.34-4.25-3.15-5.43a10.77,10.77,0,0,0-2.33-.55c-1.29-.13-1.5-.67-1.19-1.89,1.37-5.3,1.34-5.32,6.78-4,1.86.44,3.7,1,5.54,1.46,1.26.35,1.85,0,2.11-1.39.45-2.42,1.17-4.78,1.77-7.17.06-.23,0-.6.13-.69,1.65-1.07,3.17.1,4.69.46.66.16,2.25,0,1.66,1.87-.78,2.41-1.18,4.94-1.86,7.39-.49,1.78.93,1.7,1.78,1.76s2.41,1.36,2.9-.72c.53-2.25,1.13-4.49,1.64-6.74.28-1.24.53-2.12,2.18-1.36a17.67,17.67,0,0,0,3.72.83C251.23,237.48,250.64,238.56,250.28,239.6Z"/><path class="cls-19" d="M250.28,239.6c-.35-.91.65-2.06-.52-2.82C251.65,237.22,251.65,237.23,250.28,239.6Z"/><path class="cls-20" d="M508.66,307.63v-33c6.86,1.84,11.57,8.3,11.6,15.83C520.29,298.73,515.69,305.59,508.66,307.63Z"/><path class="cls-20" d="M494.46,254c-7.86-2.47-11.74-8.2-11.45-16.6.26-7.53,4.7-13.4,11.45-15Z"/><path class="cls-21" d="M245.93,282.78c-1,2.23-3.1,2.91-5.23,3.2-4.12.56-8.06-.75-12.06-1.45-1-.18-1.07-.86-.87-1.61,1-3.62,1.88-7.24,2.55-10.93.09-.48.24-1.39,1.18-1.13,5,1.32,10.2,2,13.92,6.1A5,5,0,0,1,246,278,6.24,6.24,0,0,1,245.93,282.78Z"/><path class="cls-8" d="M241.3,265.93c-2.33-.43-4.91-.89-7.48-1.38-1.1-.21-1.07-1-.9-1.84a89.14,89.14,0,0,1,2.39-9.72c.15-.47.27-1,.88-.86,3.31.77,6.69,1.47,9.56,3.4a5.47,5.47,0,0,1,2.44,5.78c-.41,2.66-2.18,3.71-4.49,4.26C243,265.72,242.29,265.78,241.3,265.93Z"/><path class="cls-22" d="M245.93,282.78,246,278C247.44,279.61,247.11,281.2,245.93,282.78Z"/></g></g></svg>
